<svg viewBox="0 0 326 329" fill="none" xmlns="http://www.w3.org/2000/svg" xmlns:anim="http://www.w3.org/2000/anim" anim="" anim:transform-origin="50% 50%" anim:duration="999999999.999" anim:ease="power1.inOut">
  <g id="a7529671b8ed361008c30ce4dbf03f3a">
    <g id="d8733643984caa538d49f79e7ecb7402">
      <g id="0972efbabea6caf1e560819a256f8f72">
        <g id="980a1859cf1d6c6cdaa43c98101e0bf1">
          <g id="4ac013dc661bc6aaff1c80ffb8d2c4c1">
            <g id="5357f2b86f8ab62c2b1168470014f165">
              <g id="78da4b20af8931bb20a27e4d3a285155">
                <g id="3415fec152304b8302c446273f20ff8c">
                  <g id="f135c64b1d749bf545e15fd2c0973c93">
                    <path id="f718943b0cdbb3b96e0f8c3bb5fcb2ba" d="M175.582 1.02678C167.148 3.18253 159.276 6.28905 155.688 8.82967C152.15 11.3703 148.15 17.7092 144.305 26.9233C143.56 28.6942 142.868 30.26 142.74 30.4135C142.612 30.5682 141.894 30.7996 141.15 30.8763C139.842 31.055 132.894 32.4158 131.844 32.7239C131.485 32.8258 130.921 32.5441 129.921 31.7743C125.768 28.5407 122.999 25.5121 121.973 23.125C121.076 21.046 121.486 18.2224 123.255 14.2958C124.076 12.4733 126.896 7.67386 128.254 5.77469C128.767 5.08169 129.177 4.41506 129.177 4.28677C129.177 3.77362 120.435 8.54672 115.615 11.7036C109.615 15.6302 105.795 19.0185 104.36 21.739C102.412 25.409 100.924 32.9541 100.309 41.938L100.155 44.5302L98.3088 45.5313C97.3088 46.0696 95.002 47.4305 93.1556 48.5599C89.2577 50.9207 89.5659 50.8955 85.3095 49.1498C81.721 47.7122 79.9262 46.6344 78.2596 45.0169C77.1829 43.9403 76.9012 43.4523 76.4911 41.9896C75.6698 38.9346 76.3628 32.1077 78.1313 26.2819C78.3879 25.3575 78.5414 24.6129 78.4394 24.6129C78.208 24.6129 75.0296 27.8993 72.7467 30.5166C66.1068 38.0881 61.8253 44.7352 61.0052 48.687C60.2103 52.4865 61.1071 59.7751 63.4403 68.4244L64.3635 71.8127L62.0819 74.3269C60.8518 75.7393 59.0317 77.8687 58.0318 79.1012L56.2357 81.3337H53.4158C48.2374 81.3337 44.3911 80.4357 42.5207 78.8447C40.5712 77.1769 39.2895 73.6603 38.5461 68.0395C38.3411 66.4485 38.1361 64.2412 38.1361 63.1634C38.1097 62.0855 38.033 60.8278 37.9299 60.4165C37.7512 59.6732 37.6997 59.7247 36.7765 61.6994C33.8546 67.8861 30.8032 76.0211 29.5467 80.9488C28.958 83.2844 28.8297 84.3371 28.8297 86.9809C28.8297 89.8812 28.88 90.368 29.5467 92.1137C31.085 96.1686 34.0596 101.559 37.6997 106.949L39.4945 109.566L38.5461 111.825C38.0078 113.056 36.9815 115.675 36.2381 117.65L34.9312 121.244L32.2647 122.091C24.8551 124.426 20.9585 124.093 18.1121 120.884C16.0607 118.523 12.9841 113.082 11.3691 108.848C10.7025 107.154 10.2157 106.512 10.2157 107.308C10.2157 107.487 10.0359 109.438 9.85601 111.62C9.01073 120.704 9.11264 128.662 10.0874 133.563C11.0622 138.491 14.1387 142.366 22.1634 148.758C23.5986 149.886 25.5469 151.375 26.4953 152.068L28.2386 153.299L28.06 155.97C27.9832 157.457 27.9065 160.307 27.9065 162.335V166.004L25.2903 167.954C23.8552 169.032 21.5987 170.445 20.2906 171.086C18.292 172.087 17.6505 172.292 16.0607 172.37C14.2922 172.497 14.0872 172.446 12.1388 171.471C9.57544 170.163 5.98574 167.211 2.65261 163.643C1.2678 162.155 0.0628299 160.949 0.0112742 160.999C-0.193749 161.231 2.44757 170.906 3.85756 175.013C6.24111 181.969 8.77933 186.947 11.0106 189.026C13.8054 191.618 19.1384 194.16 27.4952 196.958L32.3667 198.574L33.0848 201.063C33.4697 202.45 34.2646 205.016 34.8533 206.787L35.9312 209.995L35.4432 210.894C33.6495 214.23 29.5982 218.824 27.3166 220.082C26.1884 220.723 25.7016 220.827 24.1885 220.8C21.01 220.775 16.2153 219.106 10.9339 216.232C9.26732 215.334 7.90768 214.718 7.90768 214.845C7.90768 215 8.67742 216.284 9.60063 217.72C15.4204 226.601 21.5987 233.916 25.5733 236.533C28.3417 238.407 31.8547 239.202 39.2128 239.716C41.6731 239.87 45.2891 239.921 47.2626 239.843L50.8524 239.665L52.4158 241.922C53.2875 243.155 54.8773 245.336 55.9804 246.748L57.9802 249.289L57.3903 251.753C55.6722 258.991 53.3642 262.711 49.9807 263.764C47.8525 264.406 39.853 264.354 35.9815 263.636C34.4445 263.353 33.11 263.174 33.0333 263.225C32.7515 263.482 39.0581 268.204 44.0842 271.515C50.8524 275.955 56.569 278.444 60.0568 278.444C63.9535 278.444 70.7469 276.725 78.6445 273.774L82.0543 272.491L83.131 273.286C83.6945 273.723 85.8227 275.185 87.8226 276.545L91.4638 279.009L91.6689 280.703C92.0537 283.937 91.9254 289.686 91.3859 291.585C90.5658 294.588 88.5659 296.257 83.9259 297.797C81.7726 298.515 76.6961 299.619 74.3114 299.875C72.0813 300.131 71.5681 300.261 72.0034 300.517C72.2096 300.619 74.1064 301.313 76.2082 302.032C87.054 305.778 97.129 307.626 101.488 306.703C105.437 305.856 112.333 301.518 119.666 295.256L122.178 293.099L126.383 294.255C128.691 294.897 131.049 295.564 131.614 295.718C132.587 296.025 132.664 296.128 133.972 299.028C135.869 303.238 136.664 306.035 136.69 308.73C136.715 311.168 136.382 312.092 134.69 314.068C132.792 316.25 127.383 320.048 123.178 322.127C122.255 322.589 121.486 323.077 121.486 323.204C121.486 323.539 132.459 323.18 137.022 322.717C144.099 321.973 148.868 320.818 151.328 319.227C154.893 316.968 159.508 311.271 164.661 302.801C165.994 300.594 166.815 299.49 167.199 299.388C167.507 299.311 168.814 299.233 170.071 299.208C171.352 299.208 173.404 299.106 174.634 299.028L176.916 298.848L179.532 301.544C183.402 305.572 185.48 308.935 185.76 311.681C186.068 314.761 183.454 319.457 177.916 325.618C176.607 327.08 175.582 328.313 175.659 328.39C176.019 328.748 187.787 324.18 192.889 321.691C197.401 319.484 200.273 317.688 202.093 315.839C205.093 312.81 207.811 305.497 209.938 294.64C210.349 292.612 210.759 290.867 210.886 290.765C211.22 290.457 219.22 287.172 219.629 287.172C220.245 287.172 225.065 289.609 227.245 291.021C229.655 292.586 232.09 294.871 232.782 296.206C234.243 299.028 233.218 305.06 230.012 312.555C229.398 314.016 228.936 315.274 229.012 315.326C229.193 315.506 233.218 312.297 236.858 309.089C240.936 305.522 246.089 300.107 247.729 297.617C250.37 293.639 250.832 291.277 250.627 282.68C250.549 279.035 250.294 275.492 249.934 272.695L249.344 268.333L250.216 267.589C250.703 267.178 252.242 265.766 253.651 264.457L256.215 262.096L258.523 262.327C264.958 262.916 270.24 264.611 272.265 266.691C273.111 267.589 274.008 269.718 274.445 271.951C274.906 274.133 275.06 282.449 274.701 284.656C274.598 285.348 274.623 285.887 274.726 285.887C274.855 285.887 276.008 284.193 277.264 282.089C284.444 270.411 287.724 262.403 287.263 257.63C286.879 253.472 284.392 246.44 280.598 238.818L278.469 234.479L280.059 231.76C280.931 230.271 281.957 228.5 282.341 227.832C282.906 226.832 283.213 226.576 284.111 226.318C289.289 224.907 295.802 224.392 298.519 225.163C301.98 226.164 304.595 230.656 306.85 239.51C307.363 241.589 307.877 243.36 307.953 243.437C308.363 243.873 310.85 232.401 311.568 226.729C312.44 219.851 312.338 215.719 311.21 212.664C309.902 209.199 305.8 203.938 299.364 197.496L295.006 193.159L295.672 189.668C296.032 187.743 296.39 185.768 296.467 185.253C296.621 184.432 296.877 184.202 299.107 182.789C302.442 180.711 304.364 179.762 307.185 178.812C310.312 177.785 312.158 177.733 314.106 178.683C316.723 179.992 320.466 183.945 324.079 189.258C325.977 192.055 325.798 191.824 325.977 191.645C326.054 191.542 325.927 189.821 325.721 187.795C324.516 176.989 322.593 168.647 320.363 164.388C318.26 160.333 310.953 155.173 300.698 150.502C298.929 149.681 297.467 149.014 297.416 148.963C297.34 148.911 296.467 143.111 296.159 140.827C296.006 139.646 296.057 139.569 297.519 137.746C301.288 133.075 305.545 129.637 308.236 129.072C310.031 128.712 312.312 129.2 315.209 130.613C317.414 131.664 321.671 134.411 324.131 136.36C324.977 137.003 325.746 137.541 325.849 137.541C326.208 137.541 325.567 136.13 322.619 130.15C318.209 121.322 314.491 115.521 311.518 112.877C307.98 109.721 299.647 107.513 286.802 106.359L285.084 106.179L282.879 101.918L280.701 97.6577L281.238 95.9635C283.314 89.6762 286.597 84.5937 289.417 83.3096C290.366 82.8744 291.059 82.7713 293.392 82.7977C296.647 82.8228 299.698 83.3876 304.672 84.9019C306.493 85.4666 308.055 85.8514 308.133 85.7747C308.21 85.7232 306.185 83.619 303.647 81.1035C295.057 72.6592 289.059 68.2446 284.623 67.09C282.701 66.5768 277.264 66.5768 273.341 67.09C270.034 67.5264 266.42 68.1942 262.292 69.169L259.625 69.7853L255.934 66.2687L252.242 62.7269L252.394 59.2619C252.651 53.538 253.497 49.7661 255.01 47.5839C256.805 44.9918 261.625 43.7089 270.42 43.4775C272.726 43.4259 274.675 43.324 274.726 43.2461C274.906 43.0926 264.88 38.1912 261.342 36.7273C252.062 32.8522 247.062 32.0825 242.114 33.7251C238.141 35.0343 230.295 39.1408 225.501 42.3744L223.988 43.4007L220.885 41.9632C219.168 41.1934 216.964 40.2187 215.964 39.8074L214.169 39.0892L213.579 37.4203C211.732 32.3642 211.092 26.2051 212.169 23.818C213.451 20.9428 217.681 18.1205 224.808 15.2969C226.423 14.6806 227.988 14.0656 228.27 13.9888C229.167 13.6807 228.245 13.4229 224.68 12.9613C217.758 12.1148 215.554 11.9602 209.938 11.9602C203.349 11.9602 201.221 12.2683 198.273 13.6543C194.273 15.5799 189.453 20.1995 181.607 29.6701C181.095 30.2852 181.044 30.2852 179.045 30.0286C177.121 29.7984 176.942 29.7217 176.224 28.8225C173.147 25.0505 170.559 20.6611 169.942 18.1205C169.763 17.4526 169.686 16.2465 169.737 15.4C169.942 12.4218 173.07 7.36692 177.89 2.20775C179.045 0.97641 179.89 -0.0247334 179.762 0.000444975C179.659 0.000444975 177.762 0.46207 175.582 1.02678ZM174.942 43.2209C184.402 44.222 192.171 45.8382 200.451 48.5335C226.963 57.1577 249.601 74.5332 264.855 97.8891C277.675 117.522 284.546 140.673 284.546 164.234C284.546 207.018 262.189 246.465 225.372 268.59C211.784 276.776 196.016 282.372 180.325 284.579C173.686 285.529 170.609 285.733 163.02 285.733C151.56 285.733 142.637 284.605 132.254 281.884C89.1307 270.566 55.5703 236.456 44.981 193.236C43.7509 188.23 42.9044 183.482 42.2378 177.811C41.751 173.78 41.6479 171.779 41.6479 164.234C41.6479 156.636 41.7246 154.712 42.2378 150.657C43.9811 136.233 47.5708 123.811 53.6472 111.234C71.2097 74.8917 105.898 49.5095 145.714 43.8887C149.047 43.4007 153.636 42.9643 157.251 42.7329C160.456 42.5279 171.25 42.836 174.942 43.2209" fill="#262626" anim="" anim:rotation="180|360" anim:delay="0" anim:duration="7"></path>
                  </g>
                </g>
              </g>
              <g id="f9daf2ec499c9ae40b090c36ad00d393">
                <g id="f0a578ef5c93ed478e5b4b61544feca8">
                  <g id="54f954134bba3eef2e9ccb6024ebe2c8">
                    <path id="6dd0a6b22328ddda57da4123c8ff4951" d="M267.331 164.234C267.331 221.843 220.63 268.544 163.02 268.544V280.534C227.25 280.534 279.32 228.464 279.32 164.234H267.331ZM163.02 268.544C105.411 268.544 58.71 221.843 58.71 164.234H46.7203C46.7203 228.464 98.7891 280.534 163.02 280.534V268.544ZM58.71 164.234C58.71 106.624 105.411 59.9233 163.02 59.9233V47.9336C98.7891 47.9336 46.7203 100.002 46.7203 164.234H58.71ZM163.02 59.9233C220.63 59.9233 267.331 106.624 267.331 164.234H279.32C279.32 100.002 227.25 47.9336 163.02 47.9336V59.9233Z" fill="#262626"></path>
                  </g>
                </g>
              </g>
              <g id="c53c96dfec1ddf3a20c9498b68d53dee">
                <g id="3fcf2edf2e663898b1dcbc3c0a813b4b">
                  <g id="89fb474bd6ed37fcffd2a2cbf80c6cf6">
                    <path id="5c2bfd7e12d32c456538f56076b2ba97" d="M195.987 137.251L197.149 137.545L197.328 136.835L196.78 136.352L195.987 137.251ZM186.776 144.77L185.902 145.59L186.224 145.934L186.695 145.965L186.776 144.77ZM165.429 122.012L164.56 121.186L163.781 122.008L164.554 122.832L165.429 122.012ZM171.497 115.627V114.428H170.983L170.628 114.801L171.497 115.627ZM194.824 136.957C193.914 140.563 191.89 142.162 190.151 142.908C189.259 143.292 188.416 143.458 187.796 143.528C187.488 143.563 187.24 143.573 187.073 143.575C186.991 143.576 186.929 143.575 186.892 143.573C186.873 143.573 186.862 143.573 186.855 143.572H186.851H186.852H186.854H186.855C186.856 143.572 186.856 143.572 186.776 144.77C186.695 145.965 186.696 145.965 186.696 145.965H186.699C186.7 145.965 186.701 145.967 186.702 145.967C186.705 145.967 186.708 145.967 186.712 145.967C186.719 145.967 186.726 145.968 186.737 145.968C186.759 145.969 186.786 145.97 186.821 145.971C186.89 145.973 186.985 145.975 187.103 145.973C187.339 145.97 187.669 145.956 188.066 145.911C188.858 145.821 189.938 145.609 191.097 145.112C193.457 144.099 196.039 141.94 197.149 137.545L194.824 136.957ZM187.651 143.949L166.303 121.192L164.554 122.832L185.902 145.59L187.651 143.949ZM166.297 122.838L172.366 116.453L170.628 114.801L164.56 121.186L166.297 122.838ZM171.497 115.627L170.703 116.526C170.703 116.526 170.703 116.526 170.705 116.526C170.705 116.527 170.706 116.528 170.707 116.528C170.709 116.531 170.713 116.534 170.718 116.538C170.726 116.546 170.739 116.558 170.757 116.574C170.793 116.606 170.847 116.653 170.918 116.715C171.057 116.839 171.263 117.02 171.528 117.254C172.056 117.72 172.817 118.393 173.748 119.215C175.608 120.859 178.148 123.102 180.862 125.498C186.288 130.29 192.412 135.697 195.194 138.15L196.78 136.352C193.998 133.899 187.875 128.493 182.449 123.7C179.735 121.304 177.196 119.062 175.334 117.418C174.405 116.595 173.643 115.923 173.115 115.456C172.851 115.223 172.645 115.042 172.504 114.918C172.435 114.856 172.382 114.809 172.345 114.777C172.328 114.761 172.314 114.749 172.304 114.741C172.3 114.737 172.297 114.733 172.294 114.732C172.293 114.731 172.292 114.73 172.291 114.73V114.729C172.291 114.729 172.291 114.729 171.497 115.627" fill="#262626"></path>
                  </g>
                  <g id="65494e5b2f5abfff84d442e70dfdcc56">
                    <path id="37af12006226e5ead731552603e84e79" d="M152.571 99.4598L153.598 98.8423L152.571 99.4598ZM155.966 95.8197L157.144 96.0439V96.0427L155.966 95.8197ZM161.382 82.7066L160.571 83.5902L160.577 83.5962L161.382 82.7066ZM149.825 89.6414L149.004 90.5155L149.679 91.1497L150.463 90.657L149.825 89.6414ZM147.657 88.7482L147.548 87.5552H147.547L147.657 88.7482ZM136.606 98.7033L137.768 98.9982V98.9958L136.606 98.7033ZM137.472 102.755L138.331 103.591L138.844 103.065L138.607 102.369L137.472 102.755ZM135.665 104.607L135.345 105.763L136.03 105.952L136.525 105.444L135.665 104.607ZM130.898 104.129L131.745 104.977L131.747 104.975L130.898 104.129ZM130.898 108.178L132.013 107.737V107.736L130.898 108.178ZM136.315 113.533L136.747 112.415L136.315 113.533ZM139.277 113.808L138.452 112.939L138.45 112.94L139.277 113.808ZM139.494 109.14L138.576 108.367L138.249 108.755L138.301 109.261L139.494 109.14ZM141.228 107.08L141.321 105.885L140.707 105.837L140.31 106.308L141.228 107.08ZM144.478 107.013L144.745 108.182L144.746 108.181L144.478 107.013ZM170.463 116.718L171.288 115.846H171.287C171.287 115.846 171.285 115.845 171.284 115.844C171.282 115.843 171.279 115.839 171.275 115.835C171.266 115.827 171.254 115.815 171.237 115.799C171.205 115.768 171.155 115.721 171.091 115.661C170.963 115.54 170.776 115.362 170.537 115.135C170.059 114.682 169.375 114.033 168.554 113.253C166.91 111.692 164.715 109.603 162.508 107.492C160.299 105.38 158.079 103.249 156.385 101.601C155.538 100.776 154.826 100.076 154.314 99.5617C154.057 99.3039 153.856 99.0989 153.716 98.949C153.645 98.8735 153.595 98.8196 153.563 98.7848C153.511 98.7236 153.55 98.7608 153.598 98.8423L151.543 100.077C151.619 100.203 151.718 100.316 151.757 100.36C151.818 100.43 151.891 100.509 151.971 100.595C152.133 100.767 152.352 100.991 152.614 101.253C153.14 101.782 153.863 102.492 154.713 103.319C156.415 104.975 158.64 107.113 160.851 109.225C163.062 111.338 165.258 113.429 166.903 114.991C167.724 115.772 168.408 116.422 168.886 116.875C169.126 117.101 169.313 117.28 169.443 117.401C169.506 117.462 169.555 117.509 169.589 117.54C169.606 117.556 169.616 117.568 169.626 117.575C169.63 117.58 169.633 117.582 169.636 117.585C169.637 117.586 169.637 117.587 169.638 117.587V117.588L170.463 116.718ZM153.598 98.8423C153.842 99.2464 153.688 99.6013 153.675 99.6289C153.658 99.6648 153.67 99.6265 153.785 99.5006C154.003 99.2596 154.362 98.9514 154.81 98.5834C155.226 98.2428 155.728 97.8472 156.112 97.5043C156.307 97.3304 156.507 97.1386 156.672 96.9444C156.802 96.7921 157.063 96.4708 157.144 96.0439L154.789 95.5955C154.833 95.3605 154.946 95.273 154.849 95.3881C154.786 95.4612 154.678 95.5679 154.514 95.7154C154.181 96.0128 153.761 96.3437 153.292 96.7285C152.856 97.0846 152.366 97.4971 152.011 97.8868C151.838 98.0774 151.633 98.3304 151.496 98.6265C151.366 98.9119 151.192 99.4922 151.543 100.077L153.598 98.8423ZM157.144 96.0427C157.256 95.4492 157.052 94.9589 156.843 94.634C156.644 94.327 156.385 94.0836 156.212 93.9278C155.987 93.7251 155.905 93.664 155.811 93.5681C155.777 93.5333 155.792 93.5417 155.82 93.5885C155.847 93.6328 155.931 93.7827 155.936 94.0105L153.539 94.0608C153.545 94.4061 153.674 94.6759 153.777 94.8438C153.881 95.014 154.003 95.1495 154.096 95.2442C154.256 95.4085 154.508 95.6207 154.607 95.7094C154.758 95.8449 154.814 95.9133 154.83 95.9372C154.836 95.9456 154.748 95.8101 154.788 95.5979L157.144 96.0427ZM155.936 94.0105C155.94 94.164 155.911 94.2767 155.904 94.3042C155.893 94.3462 155.882 94.375 155.88 94.381C155.875 94.3942 155.876 94.387 155.894 94.3486C155.929 94.2767 155.989 94.1628 156.078 94.0009C156.254 93.682 156.513 93.2395 156.831 92.7084C157.465 91.6461 158.31 90.2697 159.157 88.8933C159.999 87.5205 160.842 86.1464 161.462 85.1021C161.77 84.583 162.032 84.1322 162.212 83.7977C162.299 83.6358 162.382 83.4763 162.441 83.3409C162.467 83.2809 162.51 83.179 162.54 83.0639C162.555 83.0123 162.583 82.8936 162.586 82.745C162.587 82.6598 162.595 82.1887 162.188 81.8194L160.577 83.5962C160.176 83.2318 160.188 82.7714 160.189 82.703C160.19 82.5699 160.215 82.4728 160.223 82.4464C160.239 82.3829 160.256 82.3517 160.243 82.3793C160.225 82.4224 160.182 82.5112 160.101 82.6598C159.946 82.9476 159.706 83.3636 159.4 83.878C158.791 84.9031 157.959 86.2604 157.114 87.638C156.27 89.0096 155.416 90.4004 154.772 91.4783C154.451 92.0154 154.176 92.4854 153.979 92.8403C153.882 93.0165 153.796 93.1796 153.731 93.3163C153.699 93.3822 153.663 93.4614 153.633 93.5429C153.625 93.5645 153.533 93.7887 153.539 94.0608L155.936 94.0105ZM162.192 81.8242C161.798 81.4621 161.338 81.504 161.287 81.5076C161.153 81.516 161.047 81.5448 160.999 81.558C160.893 81.5892 160.796 81.6299 160.733 81.6575C160.597 81.7175 160.432 81.8014 160.261 81.8937C159.91 82.0819 159.432 82.3541 158.883 82.6766C157.779 83.3241 156.333 84.2017 154.899 85.0818C153.465 85.9618 152.037 86.8478 150.969 87.5145C150.434 87.8466 149.989 88.1247 149.678 88.319C149.523 88.4173 149.399 88.494 149.317 88.5456C149.275 88.572 149.244 88.5923 149.222 88.6055C149.211 88.6127 149.203 88.6175 149.197 88.6211C149.194 88.6223 149.192 88.6235 149.191 88.6247L149.19 88.6259H149.188L149.825 89.6414L150.463 90.657C150.464 90.657 150.464 90.657 150.464 90.657C150.464 90.657 150.464 90.6558 150.465 90.6558C150.466 90.6546 150.469 90.6534 150.471 90.6522C150.476 90.6486 150.484 90.6438 150.495 90.6366C150.517 90.6234 150.548 90.603 150.59 90.5778C150.673 90.5251 150.795 90.4495 150.95 90.3524C151.26 90.1582 151.704 89.8812 152.236 89.5491C153.302 88.8849 154.725 88.0025 156.154 87.1248C157.584 86.2472 159.014 85.3803 160.097 84.7449C160.64 84.4259 161.083 84.1729 161.393 84.0075C161.551 83.9236 161.652 83.8732 161.703 83.8504C161.736 83.836 161.714 83.848 161.662 83.8624C161.642 83.8684 161.559 83.8924 161.442 83.8996C161.409 83.902 160.96 83.9475 160.571 83.5902L162.192 81.8242ZM149.825 89.6414C150.648 88.7686 150.648 88.7686 150.648 88.7686C150.648 88.7686 150.648 88.7674 150.646 88.7674L150.645 88.7662L150.643 88.7638C150.642 88.7626 150.639 88.7602 150.637 88.7578C150.632 88.753 150.626 88.7482 150.619 88.7422C150.604 88.729 150.586 88.7134 150.565 88.6943C150.52 88.6559 150.46 88.6043 150.385 88.5456C150.236 88.4281 150.023 88.2734 149.764 88.1224C149.276 87.837 148.47 87.4701 147.548 87.5552L147.768 89.9436C147.956 89.9256 148.234 90.0047 148.553 90.1918C148.697 90.2757 148.818 90.3632 148.902 90.4304C148.944 90.4627 148.974 90.4891 148.992 90.5035C149 90.5119 149.006 90.5167 149.009 90.5191C149.01 90.5191 149.01 90.5203 149.009 90.5191C149.009 90.5191 149.009 90.5179 149.007 90.5179L149.006 90.5167C149.005 90.5167 149.005 90.5155 149.005 90.5155C149.004 90.5155 149.004 90.5155 149.825 89.6414V89.6414ZM147.547 87.5552C147.211 87.5864 146.919 87.7399 146.781 87.8142C146.596 87.9149 146.395 88.0444 146.191 88.1847C145.781 88.4677 145.281 88.8537 144.735 89.2961C143.641 90.187 142.297 91.3644 140.987 92.5573C139.679 93.7503 138.394 94.9721 137.417 95.9552C136.93 96.4456 136.509 96.8868 136.196 97.2417C136.042 97.418 135.9 97.587 135.788 97.7393C135.732 97.816 135.672 97.9023 135.62 97.9923C135.575 98.0666 135.491 98.2177 135.442 98.4107L137.768 98.9958C137.748 99.0761 137.724 99.1325 137.712 99.1577C137.7 99.1852 137.689 99.2032 137.687 99.2068C137.683 99.2128 137.69 99.1996 137.718 99.1625C137.772 99.0893 137.863 98.9778 137.997 98.8255C138.262 98.5234 138.645 98.1218 139.118 97.6458C140.059 96.6974 141.316 95.5044 142.604 94.3294C143.894 93.1532 145.202 92.0094 146.249 91.1569C146.775 90.7301 147.218 90.3896 147.554 90.157C147.723 90.0407 147.846 89.9652 147.925 89.922C148.052 89.8525 147.965 89.9244 147.769 89.9424L147.547 87.5552ZM135.443 98.4095C135.373 98.6877 135.371 98.973 135.383 99.1864C135.395 99.4178 135.427 99.6612 135.467 99.8986C135.547 100.372 135.674 100.893 135.8 101.363C135.927 101.836 136.06 102.279 136.162 102.601C136.212 102.763 136.256 102.896 136.286 102.99C136.302 103.036 136.314 103.073 136.322 103.099C136.327 103.111 136.331 103.121 136.333 103.129C136.334 103.132 136.334 103.133 136.335 103.136C136.335 103.137 136.335 103.138 136.335 103.138V103.139H136.337L137.472 102.755L138.607 102.369V102.37V102.369V102.367C138.606 102.367 138.606 102.365 138.605 102.363C138.604 102.358 138.6 102.349 138.597 102.339C138.59 102.317 138.579 102.283 138.564 102.241C138.537 102.157 138.497 102.033 138.449 101.883C138.355 101.581 138.231 101.171 138.115 100.739C137.997 100.303 137.893 99.8651 137.832 99.4982C137.801 99.3147 137.784 99.1697 137.778 99.0617C137.772 98.9359 137.784 98.9335 137.768 98.9982L135.443 98.4095ZM136.612 101.918L134.807 103.77L136.525 105.444L138.331 103.591L136.612 101.918ZM135.665 104.607C135.987 103.452 135.985 103.452 135.985 103.452C135.984 103.451 135.983 103.451 135.982 103.451C135.979 103.45 135.976 103.449 135.971 103.448C135.961 103.445 135.949 103.442 135.933 103.437C135.9 103.428 135.852 103.416 135.792 103.401C135.674 103.368 135.503 103.325 135.298 103.275C134.888 103.175 134.33 103.047 133.744 102.94C133.168 102.835 132.523 102.743 131.956 102.726C131.674 102.717 131.367 102.727 131.077 102.78C130.819 102.828 130.39 102.939 130.049 103.282L131.747 104.975C131.571 105.153 131.414 105.156 131.508 105.139C131.568 105.129 131.689 105.118 131.886 105.124C132.275 105.135 132.78 105.203 133.314 105.3C133.838 105.395 134.348 105.511 134.729 105.605C134.919 105.651 135.075 105.691 135.183 105.72C135.237 105.733 135.279 105.745 135.307 105.752C135.32 105.756 135.331 105.758 135.337 105.76C135.34 105.762 135.343 105.762 135.344 105.763H135.345L135.665 104.607ZM130.05 103.281C129.666 103.665 129.476 104.159 129.378 104.572C129.276 105.004 129.242 105.47 129.252 105.92C129.27 106.814 129.461 107.803 129.783 108.619L132.013 107.736C131.802 107.204 131.663 106.498 131.65 105.869C131.643 105.559 131.668 105.306 131.711 105.127C131.758 104.931 131.801 104.921 131.745 104.977L130.05 103.281ZM129.783 108.618C129.99 109.144 130.422 109.741 130.861 110.275C131.326 110.842 131.896 111.453 132.482 112.03C133.068 112.606 133.687 113.163 134.252 113.614C134.784 114.038 135.374 114.455 135.883 114.652L136.747 112.415C136.611 112.363 136.268 112.156 135.747 111.74C135.26 111.35 134.704 110.851 134.163 110.32C133.622 109.789 133.114 109.24 132.715 108.753C132.288 108.234 132.072 107.886 132.013 107.737L129.783 108.618ZM135.883 114.652C136.5 114.889 137.205 115.162 137.851 115.267C138.524 115.376 139.399 115.347 140.104 114.676L138.45 112.94C138.524 112.869 138.563 112.953 138.236 112.899C137.883 112.843 137.423 112.675 136.747 112.415L135.883 114.652ZM140.103 114.677C140.417 114.379 140.553 113.997 140.619 113.771C140.696 113.507 140.74 113.223 140.769 112.953C140.828 112.411 140.834 111.786 140.821 111.222C140.808 110.649 140.774 110.099 140.744 109.695C140.73 109.493 140.715 109.326 140.704 109.207C140.7 109.15 140.695 109.102 140.691 109.071C140.69 109.054 140.689 109.042 140.688 109.032C140.688 109.028 140.687 109.025 140.687 109.023C140.687 109.022 140.687 109.02 140.687 109.019V109.018C140.687 109.018 140.687 109.018 139.494 109.14L138.301 109.261V109.263C138.302 109.265 138.302 109.267 138.302 109.27C138.303 109.277 138.304 109.287 138.305 109.301C138.308 109.329 138.311 109.37 138.316 109.423C138.326 109.53 138.339 109.686 138.353 109.874C138.381 110.252 138.412 110.758 138.424 111.276C138.436 111.802 138.428 112.307 138.386 112.698C138.364 112.894 138.338 113.025 138.316 113.099C138.284 113.21 138.295 113.087 138.452 112.939L140.103 114.677ZM140.411 109.912L142.144 107.853L140.31 106.308L138.576 108.367L140.411 109.912ZM141.228 107.08L141.135 108.276C141.136 108.276 141.136 108.276 141.137 108.277H141.143C141.149 108.277 141.155 108.277 141.165 108.278C141.183 108.279 141.209 108.282 141.243 108.283C141.31 108.288 141.405 108.294 141.522 108.301C141.755 108.314 142.079 108.329 142.437 108.335C143.112 108.348 144.06 108.338 144.745 108.182L144.211 105.844C143.848 105.927 143.171 105.951 142.483 105.938C142.16 105.932 141.867 105.919 141.655 105.907C141.549 105.901 141.463 105.895 141.405 105.891C141.377 105.889 141.354 105.887 141.34 105.886C141.333 105.886 141.328 105.885 141.324 105.885H141.321C141.321 105.885 141.321 105.885 141.228 107.08V107.08ZM144.746 108.181C145.121 108.096 145.426 107.898 145.636 107.734C145.86 107.561 146.071 107.355 146.258 107.152C146.631 106.748 147.013 106.252 147.344 105.818C147.697 105.359 147.989 104.975 148.24 104.7C148.365 104.563 148.439 104.498 148.47 104.476C148.54 104.425 148.367 104.585 148.035 104.571L148.145 102.175C147.624 102.151 147.229 102.412 147.051 102.542C146.832 102.703 146.633 102.902 146.467 103.085C146.131 103.454 145.765 103.936 145.44 104.36C145.095 104.812 144.781 105.217 144.498 105.524C144.357 105.676 144.249 105.777 144.17 105.837C144.078 105.908 144.096 105.871 144.209 105.844L144.746 108.181ZM148.035 104.571C147.818 104.56 147.667 104.489 147.649 104.481C147.624 104.47 147.606 104.461 147.597 104.456C147.588 104.451 147.583 104.449 147.583 104.448C147.582 104.448 147.584 104.45 147.59 104.454C147.596 104.457 147.603 104.462 147.614 104.469C147.635 104.483 147.662 104.504 147.696 104.529C147.836 104.636 148.041 104.806 148.312 105.041C148.85 105.507 149.589 106.182 150.465 107.003C152.217 108.639 154.485 110.822 156.736 113.011C158.985 115.196 161.212 117.382 162.875 119.022C163.708 119.842 164.399 120.524 164.882 121.003C165.123 121.241 165.312 121.43 165.442 121.558C165.508 121.622 165.557 121.671 165.589 121.703L165.626 121.74C165.631 121.745 165.635 121.749 165.637 121.75C165.637 121.751 165.638 121.752 165.639 121.752V121.753L166.484 120.902C167.329 120.051 167.329 120.051 167.328 120.051V120.05C167.326 120.05 167.326 120.048 167.325 120.047C167.323 120.045 167.319 120.043 167.316 120.039C167.307 120.029 167.294 120.017 167.277 120.001C167.245 119.967 167.195 119.918 167.13 119.854C167 119.726 166.81 119.538 166.567 119.298C166.084 118.818 165.391 118.135 164.559 117.314C162.891 115.672 160.663 113.482 158.407 111.291C156.154 109.101 153.872 106.903 152.103 105.251C151.221 104.425 150.456 103.727 149.884 103.231C149.601 102.984 149.349 102.775 149.148 102.621C149.049 102.546 148.941 102.468 148.837 102.404C148.784 102.372 148.712 102.33 148.627 102.293C148.569 102.267 148.386 102.186 148.145 102.175L148.035 104.571Z" fill="#262626"></path>
                  </g>
                  <g id="9f63d0e541d198fa0f29a87c2801b8e0">
                    <path id="1c670b8a210dce1fcc7cdb2b0b173f47" d="M140.853 108.43L136.813 103.843L135.013 105.428L139.055 110.015L140.853 108.43Z" fill="#262626"></path>
                  </g>
                  <g id="ac0bd07245f96ddd0f27f973fdacc9cb">
                    <path id="3ca3b16021e8a8fc26c580d5af15e0be" d="M155.785 130.2L154.648 129.819L155.785 130.2ZM155.785 140.238L154.724 139.679L155.785 140.238ZM146.791 147.448L146.741 148.646H146.742L146.791 147.448ZM129.453 128.705L130.629 128.935L129.453 128.705ZM142.781 117.48L142.837 116.282H142.834L142.781 117.48ZM144.732 118.407L144.644 117.21L144.637 117.211L144.732 118.407ZM165.226 122.333C164.479 121.395 164.479 121.395 164.479 121.396H164.477C164.477 121.396 164.477 121.396 164.477 121.397C164.476 121.397 164.475 121.399 164.473 121.401C164.468 121.404 164.461 121.409 164.452 121.416C164.434 121.431 164.408 121.452 164.374 121.479C164.306 121.533 164.205 121.613 164.078 121.715C163.824 121.917 163.461 122.209 163.023 122.559C162.149 123.259 160.981 124.2 159.809 125.155C158.637 126.109 157.454 127.084 156.551 127.852C156.101 128.236 155.711 128.576 155.425 128.841C155.284 128.972 155.153 129.096 155.05 129.205C155 129.257 154.941 129.322 154.886 129.391C154.862 129.422 154.726 129.586 154.648 129.819L156.921 130.58C156.881 130.705 156.828 130.789 156.811 130.815C156.788 130.85 156.772 130.873 156.767 130.879C156.757 130.89 156.76 130.886 156.786 130.858C156.836 130.805 156.923 130.721 157.05 130.604C157.302 130.373 157.664 130.056 158.106 129.678C158.989 128.927 160.155 127.966 161.324 127.014C162.49 126.063 163.653 125.128 164.524 124.43C164.959 124.08 165.321 123.791 165.574 123.589C165.702 123.487 165.801 123.408 165.868 123.354C165.902 123.327 165.928 123.306 165.945 123.293C165.955 123.285 165.962 123.281 165.965 123.277C165.968 123.276 165.97 123.273 165.97 123.273L165.973 123.272L165.226 122.333ZM154.648 129.819C154.576 130.033 154.569 130.265 154.566 130.325C154.561 130.446 154.558 130.587 154.56 130.738C154.561 131.042 154.572 131.437 154.586 131.884C154.615 132.729 154.67 133.992 154.708 135.095C154.749 136.259 154.779 137.416 154.769 138.334C154.763 138.794 154.749 139.173 154.724 139.452C154.712 139.593 154.697 139.69 154.687 139.75C154.67 139.832 154.671 139.78 154.724 139.679L156.846 140.795C156.96 140.578 157.013 140.35 157.04 140.204C157.074 140.036 157.095 139.852 157.112 139.667C157.146 139.295 157.161 138.844 157.166 138.359C157.177 137.384 157.146 136.18 157.105 135.013C157.062 133.782 157.015 132.741 156.983 131.803C156.968 131.358 156.959 130.994 156.957 130.727C156.956 130.594 156.959 130.5 156.961 130.44C156.967 130.32 156.973 130.426 156.921 130.58L154.648 129.819ZM154.724 139.679C154.753 139.625 154.707 139.709 154.438 139.992C154.213 140.23 153.902 140.536 153.527 140.89C152.779 141.594 151.804 142.455 150.804 143.289C149.802 144.124 148.791 144.915 147.968 145.489C147.554 145.777 147.21 145.994 146.95 146.133C146.82 146.203 146.734 146.24 146.686 146.258C146.615 146.283 146.687 146.243 146.839 146.249L146.742 148.646C147.05 148.658 147.324 148.575 147.498 148.513C147.693 148.443 147.891 148.349 148.079 148.248C148.458 148.047 148.888 147.77 149.338 147.457C150.241 146.828 151.31 145.988 152.339 145.131C153.371 144.271 154.382 143.378 155.171 142.636C155.564 142.265 155.911 141.925 156.181 141.639C156.408 141.398 156.696 141.082 156.846 140.794L154.724 139.679ZM146.842 146.249C146.975 146.255 147.071 146.285 147.107 146.297C147.128 146.306 147.145 146.312 147.155 146.315C147.164 146.32 147.17 146.322 147.171 146.324C147.173 146.325 147.165 146.32 147.145 146.308C147.126 146.296 147.1 146.279 147.066 146.256C146.926 146.161 146.721 146.001 146.45 145.772C145.913 145.318 145.193 144.657 144.347 143.841C142.66 142.215 140.518 140.028 138.421 137.791C136.322 135.552 134.28 133.28 132.786 131.483C132.038 130.581 131.443 129.82 131.05 129.252C130.852 128.964 130.725 128.755 130.657 128.62C130.622 128.55 130.617 128.53 130.623 128.548C130.626 128.557 130.636 128.593 130.642 128.65C130.648 128.704 130.656 128.805 130.629 128.935L128.276 128.476C128.212 128.803 128.282 129.087 128.325 129.231C128.375 129.4 128.446 129.56 128.516 129.699C128.656 129.977 128.854 130.29 129.078 130.614C129.53 131.269 130.177 132.095 130.942 133.016C132.478 134.864 134.556 137.174 136.672 139.431C138.788 141.688 140.958 143.906 142.684 145.568C143.543 146.397 144.306 147.101 144.902 147.604C145.198 147.854 145.473 148.071 145.709 148.234C145.825 148.313 145.956 148.395 146.09 148.464C146.187 148.513 146.433 148.633 146.741 148.646L146.842 146.249ZM130.629 128.935C130.598 129.094 130.542 129.139 130.632 129.006C130.696 128.909 130.807 128.768 130.967 128.582C131.288 128.213 131.752 127.738 132.327 127.186C133.474 126.086 135.002 124.745 136.567 123.44C138.13 122.137 139.713 120.889 140.966 119.973C141.595 119.513 142.124 119.151 142.519 118.909C142.719 118.788 142.861 118.71 142.951 118.669C142.995 118.648 143.009 118.645 142.994 118.649C142.987 118.653 142.962 118.66 142.924 118.666C142.888 118.672 142.819 118.681 142.728 118.678L142.834 116.282C142.599 116.271 142.401 116.323 142.292 116.357C142.166 116.395 142.047 116.445 141.943 116.493C141.733 116.59 141.503 116.72 141.268 116.864C140.793 117.155 140.203 117.56 139.552 118.036C138.245 118.991 136.622 120.274 135.031 121.598C133.442 122.923 131.869 124.305 130.668 125.456C130.069 126.029 129.547 126.561 129.157 127.011C128.963 127.234 128.785 127.455 128.644 127.664C128.528 127.838 128.343 128.132 128.276 128.476L130.629 128.935ZM142.723 118.678C142.957 118.689 143.135 118.777 143.343 118.933C143.398 118.974 143.451 119.017 143.516 119.07C143.572 119.115 143.654 119.183 143.733 119.241C143.81 119.299 143.933 119.386 144.087 119.46C144.238 119.531 144.499 119.627 144.826 119.601L144.637 117.211C144.883 117.191 145.058 117.265 145.116 117.293C145.175 117.322 145.198 117.342 145.167 117.318C145.136 117.297 145.1 117.267 145.027 117.208C144.962 117.155 144.875 117.086 144.78 117.012C144.378 116.711 143.742 116.325 142.837 116.282L142.723 118.678ZM144.819 119.602C145.061 119.584 145.24 119.495 145.266 119.483C145.33 119.452 145.383 119.421 145.415 119.402C145.482 119.36 145.548 119.314 145.603 119.275C145.718 119.191 145.859 119.082 146.014 118.957C146.329 118.705 146.752 118.352 147.241 117.938C148.222 117.107 149.495 116.005 150.754 114.907C152.014 113.809 153.263 112.711 154.197 111.888C154.664 111.477 155.053 111.134 155.324 110.894C155.46 110.774 155.567 110.679 155.64 110.616C155.677 110.584 155.705 110.558 155.724 110.542C155.733 110.533 155.739 110.527 155.744 110.522C155.747 110.52 155.749 110.519 155.75 110.518L155.751 110.516L154.958 109.618C154.163 108.72 154.163 108.72 154.161 108.72V108.722C154.161 108.722 154.161 108.722 154.161 108.723C154.16 108.723 154.158 108.725 154.155 108.728C154.151 108.731 154.143 108.737 154.134 108.746C154.116 108.762 154.087 108.787 154.051 108.819C153.979 108.883 153.873 108.977 153.737 109.097C153.466 109.337 153.079 109.678 152.612 110.088C151.681 110.91 150.434 112.004 149.179 113.1C147.921 114.196 146.658 115.288 145.692 116.108C145.206 116.518 144.804 116.854 144.515 117.086C144.368 117.203 144.263 117.285 144.196 117.333C144.161 117.359 144.152 117.363 144.164 117.357C144.168 117.353 144.197 117.336 144.241 117.315C144.248 117.311 144.413 117.227 144.644 117.21L144.819 119.602Z" fill="#262626"></path>
                  </g>
                  <g id="41e208300adf92bbcec1a22bce762632">
                    <path id="bd2d5bf9bc244eee9ea4d7168fd2cd14" d="M151.992 136.874L152.956 137.588L152.957 137.585L151.992 136.874ZM151.558 132.684L152.439 131.871L152.437 131.868L151.558 132.684ZM135.913 128.912L137.112 128.897V128.894L135.913 128.912ZM147.581 142.118C147.821 142.089 148.015 141.999 148.109 141.953C148.224 141.897 148.335 141.83 148.433 141.766C148.631 141.638 148.85 141.474 149.07 141.299C149.516 140.945 150.043 140.483 150.553 140.015C151.068 139.545 151.578 139.053 151.998 138.633C152.392 138.238 152.768 137.842 152.956 137.588L151.028 136.161C150.963 136.25 150.716 136.523 150.299 136.94C149.908 137.332 149.421 137.799 148.933 138.247C148.442 138.698 147.961 139.117 147.577 139.422C147.384 139.576 147.233 139.686 147.128 139.754C147.075 139.789 147.051 139.801 147.052 139.8C147.053 139.8 147.071 139.792 147.104 139.78C147.133 139.77 147.201 139.747 147.297 139.736L147.581 142.118ZM152.957 137.585C153.261 137.174 153.388 136.649 153.448 136.241C153.515 135.792 153.528 135.291 153.492 134.794C153.426 133.879 153.166 132.658 152.439 131.871L150.678 133.498C150.835 133.668 151.045 134.198 151.101 134.968C151.125 135.315 151.113 135.637 151.076 135.888C151.033 136.181 150.977 136.232 151.027 136.163L152.957 137.585ZM152.437 131.868C151.998 131.398 149.941 129.166 147.918 127.051C146.906 125.995 145.895 124.958 145.093 124.179C144.695 123.79 144.333 123.453 144.043 123.205C143.9 123.084 143.754 122.965 143.617 122.871C143.549 122.824 143.461 122.767 143.363 122.718C143.294 122.683 143.087 122.582 142.814 122.566L142.678 124.959C142.443 124.947 142.289 124.862 142.283 124.86C142.248 124.842 142.236 124.832 142.256 124.845C142.295 124.872 142.369 124.929 142.487 125.03C142.718 125.226 143.035 125.521 143.422 125.898C144.192 126.646 145.179 127.658 146.184 128.708C148.192 130.809 150.234 133.021 150.68 133.502L152.437 131.868ZM142.814 122.566C142.472 122.547 142.182 122.671 142.105 122.704C141.967 122.761 141.825 122.837 141.692 122.911C141.421 123.061 141.097 123.267 140.752 123.499C140.055 123.965 139.199 124.586 138.372 125.214C137.544 125.844 136.729 126.493 136.114 127.017C135.81 127.276 135.537 127.519 135.334 127.722C135.235 127.82 135.13 127.931 135.04 128.044C134.997 128.099 134.935 128.182 134.88 128.284C134.844 128.347 134.709 128.593 134.714 128.931L137.112 128.894C137.116 129.206 136.993 129.417 136.981 129.438C136.963 129.472 136.947 129.495 136.939 129.507C136.931 129.519 136.926 129.527 136.923 129.528C136.922 129.531 136.929 129.522 136.949 129.501C136.967 129.48 136.992 129.455 137.025 129.422C137.163 129.284 137.381 129.086 137.669 128.841C138.24 128.356 139.018 127.736 139.822 127.124C140.627 126.513 141.442 125.922 142.086 125.49C142.41 125.273 142.674 125.109 142.861 125.003C142.957 124.951 143.011 124.926 143.03 124.917C143.112 124.882 142.943 124.975 142.678 124.959L142.814 122.566ZM134.714 128.928C134.717 129.196 134.812 129.396 134.829 129.432C134.862 129.508 134.898 129.57 134.922 129.609C134.971 129.689 135.027 129.767 135.076 129.833C135.178 129.968 135.312 130.135 135.468 130.321C135.782 130.695 136.222 131.196 136.744 131.775C137.788 132.936 139.181 134.439 140.591 135.925C142 137.409 143.431 138.886 144.552 139.991C145.111 140.541 145.604 141.011 145.984 141.345C146.171 141.511 146.35 141.661 146.507 141.776C146.582 141.831 146.682 141.899 146.792 141.958C146.846 141.987 146.93 142.028 147.034 142.061C147.121 142.09 147.323 142.148 147.581 142.118L147.297 139.736C147.537 139.708 147.718 139.762 147.775 139.781C147.851 139.805 147.901 139.831 147.919 139.841C147.953 139.859 147.957 139.866 147.922 139.84C147.854 139.79 147.739 139.697 147.571 139.548C147.242 139.257 146.785 138.823 146.236 138.282C145.142 137.204 143.73 135.751 142.331 134.275C140.932 132.8 139.553 131.312 138.526 130.171C138.011 129.599 137.592 129.122 137.305 128.779C137.158 128.605 137.058 128.48 136.999 128.399C136.967 128.357 136.961 128.346 136.968 128.358C136.971 128.363 136.991 128.395 137.015 128.447C137.021 128.46 137.108 128.641 137.112 128.897L134.714 128.928Z" fill="#262626"></path>
                  </g>
                  <g id="1f88066756abbdb680309c1cc5dfaa15">
                    <path id="ccb89f0d1941ab8880b92250d3ee7a94" d="M186.885 83.943L186.961 82.7465H186.959L186.885 83.943ZM194.036 91.1177L195.179 90.7604L195.099 90.5014L194.914 90.3024L194.036 91.1177ZM195.227 94.9412L195.303 96.1377L196.826 96.0418L196.372 94.5839L195.227 94.9412ZM191.111 100.592L190.868 101.767L192.876 102.182L192.255 100.229L191.111 100.592ZM184.825 99.6663L184.001 98.7959L183.999 98.7983L184.825 99.6663ZM186.885 104.636L186.68 105.817L189.046 106.227L187.953 104.091L186.885 104.636ZM180.709 103.888L181.533 104.758L181.534 104.757L180.709 103.888ZM182.117 109.621L181.733 110.757L183.961 111.51L183.263 109.264L182.117 109.621ZM175.941 107.903L175.119 107.03L175.116 107.033L175.941 107.903ZM177.998 113.258L177.636 114.4L180.226 115.221L179.086 112.754L177.998 113.258ZM171.93 111.712L171.158 110.795L171.152 110.801L171.93 111.712ZM159.152 105.938C159.907 106.87 159.907 106.87 159.907 106.87H159.908C159.908 106.869 159.909 106.867 159.912 106.866C159.914 106.864 159.92 106.859 159.926 106.854L159.984 106.806C160.035 106.765 160.112 106.703 160.212 106.623C160.411 106.462 160.703 106.225 161.076 105.924C161.819 105.322 162.884 104.462 164.162 103.43C166.72 101.365 170.134 98.6136 173.566 95.8632C176.997 93.1128 180.443 90.3647 183.063 88.3085C184.374 87.2798 185.474 86.4273 186.26 85.8362C186.655 85.5389 186.959 85.3147 187.169 85.1684C187.277 85.0928 187.344 85.0497 187.378 85.0293C187.398 85.0173 187.386 85.0257 187.354 85.0413C187.338 85.0485 187.296 85.0677 187.236 85.0869C187.203 85.0976 187.035 85.154 186.811 85.1396L186.959 82.7465C186.727 82.7321 186.548 82.7896 186.499 82.8052C186.423 82.8292 186.362 82.8568 186.326 82.8736C186.253 82.9095 186.186 82.9479 186.138 82.9767C186.037 83.0378 185.92 83.1169 185.799 83.2009C185.552 83.3735 185.217 83.6181 184.816 83.9203C184.012 84.5269 182.897 85.3914 181.583 86.4225C178.953 88.4871 175.5 91.24 172.066 93.9928C168.631 96.7456 165.215 99.4985 162.656 101.564C161.377 102.597 160.312 103.457 159.568 104.059C159.195 104.36 158.902 104.598 158.703 104.76C158.604 104.84 158.527 104.901 158.475 104.943C158.45 104.965 158.43 104.98 158.417 104.991C158.411 104.996 158.406 104.999 158.402 105.003C158.401 105.004 158.4 105.005 158.399 105.005C158.397 105.005 158.397 105.007 158.397 105.007C158.397 105.007 158.397 105.007 159.152 105.938V105.938ZM186.809 85.1396C186.571 85.124 186.413 85.0377 186.407 85.0341C186.369 85.0149 186.355 85.0029 186.371 85.0149C186.402 85.0353 186.464 85.0845 186.568 85.1732C186.772 85.347 187.054 85.6084 187.396 85.9393C188.076 86.5988 188.941 87.4824 189.798 88.3744C190.655 89.2641 191.494 90.1537 192.12 90.8215C192.433 91.1548 192.692 91.433 192.873 91.6272C192.963 91.7243 193.034 91.8011 193.082 91.8526C193.105 91.879 193.124 91.8982 193.138 91.9114C193.144 91.9186 193.148 91.9234 193.151 91.927C193.153 91.9282 193.154 91.9294 193.154 91.9306V91.9318L194.036 91.1177L194.914 90.3024C194.914 90.3024 194.913 90.3024 194.913 90.3012C194.912 90.3 194.911 90.2988 194.91 90.2976C194.906 90.294 194.902 90.288 194.896 90.282C194.883 90.2676 194.864 90.2472 194.84 90.2208C194.791 90.1681 194.719 90.0913 194.628 89.993C194.446 89.7976 194.184 89.517 193.869 89.1813C193.238 88.5087 192.392 87.6119 191.527 86.7127C190.664 85.8146 189.776 84.907 189.065 84.2176C188.711 83.8747 188.387 83.5726 188.126 83.3495C187.998 83.2404 187.863 83.1313 187.737 83.0438C187.675 83.0006 187.594 82.9479 187.5 82.8987C187.436 82.8676 187.233 82.7644 186.961 82.7465L186.809 85.1396ZM192.891 91.4738L194.082 95.2985L196.372 94.5839L195.179 90.7604L192.891 91.4738ZM195.227 94.9412L195.152 93.7446H195.151C195.149 93.7446 195.148 93.7446 195.147 93.7458C195.145 93.7458 195.141 93.7458 195.135 93.7458C195.125 93.747 195.11 93.7482 195.091 93.7494C195.052 93.7518 194.996 93.7554 194.923 93.7602C194.779 93.7698 194.573 93.7842 194.326 93.8022C193.831 93.8369 193.166 93.8873 192.495 93.9472C191.826 94.006 191.134 94.0743 190.589 94.1475C190.319 94.1846 190.061 94.2242 189.851 94.2698C189.749 94.2913 189.628 94.3213 189.511 94.3621C189.453 94.3837 189.369 94.4148 189.278 94.464C189.209 94.5012 189.026 94.6043 188.869 94.8033L190.752 96.29C190.607 96.4723 190.45 96.5574 190.41 96.5778C190.354 96.6077 190.31 96.6233 190.303 96.6257C190.285 96.6317 190.298 96.6269 190.358 96.6137C190.475 96.5886 190.658 96.5574 190.908 96.525C191.398 96.4579 192.047 96.3931 192.705 96.3356C193.359 96.278 194.009 96.2289 194.497 96.1929C194.741 96.1761 194.943 96.1617 195.084 96.1533C195.153 96.1473 195.209 96.1437 195.248 96.1413C195.266 96.1401 195.28 96.1389 195.29 96.1389C195.295 96.1389 195.298 96.1377 195.301 96.1377H195.303L195.227 94.9412ZM188.869 94.8033C188.694 95.0251 188.64 95.2493 188.62 95.3452C188.597 95.4603 188.591 95.5622 188.59 95.6294C188.589 95.7649 188.602 95.8968 188.615 95.9999C188.644 96.2121 188.695 96.4651 188.754 96.7192C188.873 97.2372 189.05 97.8834 189.227 98.5033C189.406 99.1268 189.592 99.7395 189.731 100.195C189.802 100.423 189.861 100.612 189.903 100.745C189.923 100.811 189.94 100.864 189.952 100.9C189.958 100.918 189.962 100.931 189.964 100.941C189.965 100.946 189.966 100.949 189.968 100.952C189.968 100.953 189.969 100.954 189.969 100.954V100.955L191.111 100.592L192.255 100.229H192.254V100.226C192.253 100.224 192.252 100.22 192.25 100.217C192.248 100.207 192.243 100.195 192.238 100.177C192.226 100.144 192.211 100.092 192.192 100.028C192.151 99.8989 192.093 99.7131 192.024 99.4901C191.886 99.0429 191.706 98.4458 191.532 97.8415C191.357 97.2336 191.195 96.6353 191.091 96.1821C191.037 95.9507 191.006 95.7853 190.993 95.6845C190.985 95.6306 190.989 95.6318 190.988 95.6678C190.988 95.6845 190.987 95.7433 190.97 95.8248C190.957 95.886 190.912 96.085 190.752 96.29L188.869 94.8033ZM191.111 100.592L191.356 99.4181H191.355C191.354 99.4181 191.352 99.4181 191.351 99.4169C191.348 99.4169 191.343 99.4157 191.337 99.4145C191.325 99.4121 191.308 99.4085 191.285 99.4037C191.241 99.3953 191.176 99.381 191.093 99.3642C190.928 99.3306 190.692 99.2838 190.408 99.2275C189.839 99.116 189.075 98.9697 188.3 98.8318C187.528 98.6963 186.726 98.5657 186.088 98.4901C185.772 98.4518 185.468 98.4242 185.215 98.4182C185.093 98.4158 184.944 98.417 184.798 98.4362C184.723 98.4458 184.619 98.4626 184.505 98.5009C184.406 98.5321 184.197 98.61 184.001 98.7959L185.651 100.536C185.475 100.702 185.299 100.763 185.241 100.783C185.167 100.805 185.115 100.813 185.103 100.814C185.079 100.817 185.093 100.814 185.163 100.815C185.3 100.819 185.513 100.835 185.803 100.871C186.373 100.938 187.122 101.06 187.883 101.194C188.638 101.327 189.385 101.471 189.944 101.58C190.223 101.635 190.456 101.682 190.616 101.715C190.698 101.731 190.76 101.744 190.804 101.753C190.825 101.757 190.842 101.761 190.852 101.763C190.857 101.765 190.861 101.765 190.864 101.766C190.866 101.766 190.867 101.766 190.867 101.766H190.868V101.767L191.111 100.592ZM183.999 98.7983C183.601 99.1783 183.597 99.6603 183.596 99.7646C183.595 99.9433 183.624 100.108 183.65 100.223C183.702 100.462 183.792 100.732 183.886 100.989C184.081 101.514 184.364 102.16 184.645 102.769C184.928 103.384 185.221 103.986 185.443 104.435C185.554 104.658 185.646 104.845 185.712 104.975C185.746 105.04 185.771 105.092 185.789 105.126C185.799 105.144 185.806 105.158 185.811 105.167C185.812 105.172 185.813 105.176 185.814 105.178C185.815 105.179 185.815 105.18 185.817 105.18V105.182L186.885 104.636L187.953 104.091C187.953 104.091 187.953 104.089 187.952 104.089C187.952 104.089 187.952 104.088 187.951 104.087C187.951 104.086 187.948 104.082 187.946 104.079C187.942 104.07 187.935 104.057 187.927 104.04C187.91 104.008 187.886 103.959 187.854 103.895C187.79 103.77 187.7 103.589 187.592 103.372C187.377 102.935 187.095 102.353 186.823 101.765C186.548 101.17 186.296 100.592 186.136 100.157C186.053 99.9325 186.01 99.7874 185.993 99.7131C185.983 99.6711 185.995 99.7047 185.994 99.7802C185.994 99.7826 186.011 100.193 185.654 100.533L183.999 98.7983ZM186.885 104.636C187.09 103.455 187.09 103.454 187.09 103.454H187.089C187.088 103.454 187.086 103.454 187.085 103.454C187.082 103.453 187.078 103.453 187.072 103.451C187.06 103.45 187.043 103.447 187.022 103.443C186.977 103.435 186.913 103.425 186.832 103.411C186.668 103.383 186.435 103.344 186.155 103.298C185.595 103.206 184.842 103.085 184.078 102.973C183.319 102.862 182.533 102.756 181.91 102.696C181.604 102.666 181.309 102.645 181.066 102.643C180.951 102.642 180.811 102.645 180.672 102.663C180.605 102.671 180.505 102.687 180.395 102.721C180.307 102.749 180.087 102.824 179.882 103.019L181.534 104.757C181.347 104.935 181.156 104.996 181.108 105.011C181.036 105.033 180.986 105.039 180.978 105.04C180.958 105.044 180.973 105.04 181.045 105.04C181.181 105.041 181.395 105.056 181.679 105.083C182.243 105.137 182.981 105.236 183.73 105.346C184.475 105.455 185.212 105.574 185.765 105.664C186.042 105.709 186.271 105.747 186.431 105.774C186.511 105.788 186.573 105.799 186.615 105.806C186.637 105.81 186.654 105.812 186.663 105.815C186.669 105.816 186.673 105.816 186.676 105.817C186.678 105.817 186.679 105.817 186.679 105.817H186.68L186.885 104.636ZM179.883 103.017C179.654 103.236 179.566 103.483 179.534 103.598C179.497 103.728 179.485 103.846 179.479 103.923C179.469 104.076 179.481 104.226 179.493 104.34C179.519 104.58 179.571 104.864 179.634 105.152C179.761 105.738 179.954 106.473 180.149 107.178C180.346 107.888 180.552 108.588 180.708 109.108C180.786 109.368 180.852 109.585 180.899 109.736C180.921 109.812 180.94 109.872 180.952 109.913C180.96 109.933 180.964 109.949 180.967 109.959C180.968 109.965 180.969 109.97 180.97 109.971C180.97 109.974 180.972 109.975 180.972 109.975V109.976L182.117 109.621L183.263 109.264C183.262 109.263 183.262 109.262 183.262 109.26C183.26 109.258 183.259 109.254 183.258 109.25C183.254 109.24 183.25 109.224 183.244 109.205C183.232 109.166 183.214 109.108 183.191 109.034C183.147 108.886 183.081 108.674 183.005 108.419C182.852 107.908 182.651 107.225 182.46 106.536C182.267 105.843 182.089 105.162 181.978 104.647C181.921 104.384 181.89 104.198 181.878 104.086C181.871 104.026 181.876 104.029 181.872 104.074C181.871 104.094 181.866 104.165 181.84 104.26C181.816 104.339 181.745 104.557 181.533 104.758L179.883 103.017ZM182.117 109.621L182.502 108.485H182.5C182.499 108.484 182.498 108.484 182.497 108.484C182.493 108.482 182.49 108.48 182.484 108.479C182.472 108.474 182.455 108.469 182.433 108.462C182.389 108.446 182.324 108.425 182.243 108.398C182.08 108.344 181.847 108.267 181.565 108.174C181.006 107.991 180.253 107.747 179.49 107.514C178.73 107.28 177.943 107.05 177.318 106.894C177.011 106.817 176.714 106.75 176.467 106.713C176.348 106.696 176.2 106.678 176.05 106.679C175.974 106.679 175.862 106.684 175.731 106.713C175.624 106.735 175.36 106.803 175.119 107.03L176.763 108.776C176.539 108.987 176.304 109.042 176.236 109.057C176.146 109.076 176.081 109.076 176.067 109.076C176.033 109.077 176.04 109.073 176.111 109.084C176.243 109.105 176.452 109.148 176.737 109.22C177.298 109.36 178.037 109.576 178.785 109.806C179.529 110.035 180.267 110.272 180.819 110.453C181.095 110.543 181.324 110.62 181.484 110.673C181.565 110.699 181.626 110.72 181.668 110.735C181.691 110.742 181.707 110.747 181.717 110.751C181.722 110.753 181.727 110.754 181.729 110.756C181.731 110.756 181.732 110.756 181.732 110.756C181.733 110.756 181.733 110.757 181.733 110.757L182.117 109.621ZM175.116 107.033C174.87 107.267 174.784 107.535 174.753 107.674C174.719 107.824 174.715 107.956 174.718 108.039C174.721 108.203 174.75 108.359 174.774 108.47C174.827 108.705 174.913 108.98 175.008 109.25C175.2 109.802 175.478 110.492 175.756 111.149C176.035 111.813 176.323 112.465 176.541 112.95C176.651 113.193 176.743 113.395 176.808 113.536C176.839 113.607 176.865 113.663 176.882 113.7C176.89 113.719 176.898 113.735 176.902 113.745C176.905 113.749 176.907 113.753 176.908 113.755C176.908 113.758 176.91 113.758 176.91 113.759V113.76L177.998 113.258L179.086 112.754C179.086 112.753 179.086 112.752 179.084 112.751C179.083 112.749 179.082 112.746 179.08 112.741C179.076 112.731 179.069 112.718 179.062 112.699C179.045 112.663 179.02 112.609 178.989 112.541C178.925 112.403 178.836 112.206 178.73 111.969C178.517 111.493 178.236 110.857 177.966 110.217C177.692 109.571 177.438 108.939 177.272 108.462C177.187 108.217 177.137 108.048 177.117 107.954C177.105 107.9 177.113 107.919 177.115 107.979C177.116 108.01 177.117 108.096 177.089 108.211C177.067 108.316 176.993 108.557 176.766 108.774L175.116 107.033ZM177.998 113.258L178.36 112.114H178.359C178.358 112.114 178.357 112.114 178.356 112.113C178.353 112.112 178.348 112.11 178.342 112.109C178.332 112.106 178.315 112.1 178.293 112.094C178.251 112.079 178.188 112.06 178.109 112.035C177.949 111.986 177.72 111.915 177.447 111.831C176.899 111.663 176.164 111.443 175.416 111.229C174.671 111.017 173.898 110.808 173.28 110.669C172.976 110.6 172.68 110.541 172.433 110.511C172.314 110.495 172.166 110.482 172.018 110.486C171.943 110.488 171.834 110.495 171.713 110.523C171.609 110.547 171.379 110.609 171.158 110.795L172.704 112.63C172.502 112.799 172.304 112.848 172.241 112.862C172.159 112.88 172.102 112.883 172.087 112.883C172.059 112.884 172.068 112.881 172.136 112.89C172.267 112.907 172.472 112.944 172.752 113.007C173.303 113.132 174.025 113.326 174.759 113.535C175.486 113.742 176.206 113.959 176.745 114.123C177.015 114.206 177.237 114.276 177.394 114.324C177.471 114.349 177.532 114.367 177.573 114.38C177.594 114.387 177.61 114.392 177.619 114.396C177.625 114.397 177.629 114.398 177.633 114.399L177.635 114.4H177.636L177.998 113.258ZM171.152 110.801C170.937 110.985 170.836 111.194 170.788 111.318C170.737 111.449 170.714 111.566 170.702 111.646C170.68 111.807 170.681 111.962 170.687 112.076C170.698 112.313 170.737 112.588 170.783 112.856C170.878 113.404 171.032 114.086 171.192 114.735C171.352 115.388 171.523 116.03 171.651 116.508C171.717 116.747 171.772 116.946 171.81 117.085C171.828 117.154 171.844 117.21 171.856 117.247C171.861 117.265 171.865 117.28 171.868 117.29C171.869 117.295 171.87 117.298 171.871 117.302V117.304C171.873 117.304 171.873 117.306 171.873 117.306L173.025 116.978L174.178 116.65V116.649C174.177 116.649 174.177 116.647 174.177 116.646C174.176 116.645 174.176 116.641 174.175 116.637C174.171 116.628 174.169 116.615 174.164 116.596C174.153 116.561 174.139 116.508 174.121 116.441C174.082 116.307 174.028 116.114 173.966 115.88C173.839 115.414 173.675 114.791 173.521 114.164C173.365 113.53 173.226 112.913 173.146 112.449C173.105 112.211 173.086 112.05 173.082 111.962C173.08 111.913 173.084 111.931 173.075 111.988C173.072 112.017 173.06 112.091 173.022 112.186C172.989 112.275 172.904 112.458 172.71 112.624L171.152 110.801Z" fill="#262626"></path>
                  </g>
                  <g id="375d4bf1b39913eafc0662300020f7ca">
                    <path id="df60c0012381ec012987f9c205dfa91a" d="M155.536 93.1431L150.625 88.7477L149.027 90.5353L153.938 94.9296L155.536 93.1431Z" fill="#262626"></path>
                  </g>
                  <g id="7415cdbbfdf7a70e7841689ac23c9831">
                    <path id="530c4aa7535f229c2ebb983b33db4398" d="M107.988 180.756C106.292 181.124 104.766 181.307 103.408 181.307C102.048 181.307 100.962 181.138 100.146 180.803C99.331 180.468 98.692 179.932 98.228 179.197C97.764 178.461 97.445 177.597 97.2688 176.607C97.0925 175.616 97.005 174.369 97.005 172.866C97.005 169.717 97.445 167.527 98.3239 166.295C99.2195 165.049 100.857 164.426 103.24 164.426C104.615 164.426 106.205 164.641 108.012 165.073L107.916 167.711C106.333 167.471 105.014 167.35 103.959 167.35C102.92 167.35 102.176 167.494 101.729 167.783C101.282 168.054 100.945 168.582 100.722 169.365C100.514 170.148 100.41 171.484 100.41 173.37C100.41 175.256 100.626 176.568 101.058 177.303C101.505 178.022 102.385 178.382 103.695 178.382C105.021 178.382 106.429 178.27 107.916 178.045L107.988 180.756ZM109.305 181.019L112.974 164.713H119.257L122.926 181.019H119.616L118.969 178.07H113.262L112.614 181.019H109.305ZM115.54 167.446L113.885 175.191H118.345L116.691 167.446H115.54ZM128.407 175.552V181.019H125.098V164.713H131.427C135.264 164.713 137.184 166.503 137.184 170.085C137.184 172.21 136.384 173.778 134.786 174.785L137.112 181.019H133.491L131.595 175.552H128.407ZM131.475 172.722C132.259 172.722 132.842 172.483 133.226 172.003C133.611 171.523 133.803 170.892 133.803 170.109C133.803 169.326 133.594 168.701 133.179 168.238C132.779 167.774 132.195 167.542 131.427 167.542H128.407V172.722H131.475ZM145.963 176.271H143.277V181.019H139.968V164.713H145.963C149.83 164.713 151.766 166.599 151.766 170.372C151.766 172.275 151.27 173.737 150.279 174.761C149.303 175.768 147.865 176.271 145.963 176.271ZM143.277 173.441H145.939C147.585 173.441 148.408 172.418 148.408 170.372C148.408 169.365 148.208 168.645 147.809 168.214C147.408 167.766 146.785 167.542 145.939 167.542H143.277V173.441ZM154.088 164.713H157.397V181.019H154.088V164.713ZM159.487 167.639V164.713H171.477V167.639H167.16V181.019H163.851V167.639H159.487ZM173.572 181.019V164.713H184.122V167.591H176.88V171.404H182.683V174.233H176.88V178.141H184.122V181.019H173.572ZM197.066 180.756C195.372 181.124 193.846 181.307 192.487 181.307C191.128 181.307 190.041 181.138 189.225 180.803C188.411 180.468 187.771 179.932 187.308 179.197C186.844 178.461 186.524 177.597 186.349 176.607C186.172 175.616 186.085 174.369 186.085 172.866C186.085 169.717 186.524 167.527 187.404 166.295C188.299 165.049 189.937 164.426 192.318 164.426C193.695 164.426 195.285 164.641 197.091 165.073L196.995 167.711C195.413 167.471 194.094 167.35 193.039 167.35C191.999 167.35 191.256 167.494 190.809 167.783C190.362 168.054 190.025 168.582 189.802 169.365C189.593 170.148 189.49 171.484 189.49 173.37C189.49 175.256 189.706 176.568 190.137 177.303C190.585 178.022 191.465 178.382 192.774 178.382C194.102 178.382 195.509 178.27 196.995 178.045L197.066 180.756ZM210.92 181.019V178.406H204.205V175.887L208.113 165.193H211.758L207.514 175.528H210.92V171.091H214.229V175.528H215.74V178.406H214.229V181.019H210.92ZM218.151 165.768C219.622 165.193 221.26 164.905 223.067 164.905C224.889 164.905 226.217 165.256 227.048 165.96C227.88 166.647 228.295 167.759 228.295 169.292C228.295 170.828 227.679 172.003 226.448 172.818C227.215 173.234 227.759 173.665 228.079 174.113C228.414 174.56 228.583 175.273 228.583 176.246C228.583 177.957 228.151 179.229 227.287 180.06C226.44 180.891 225.074 181.307 223.188 181.307C221.796 181.307 220.333 181.098 218.799 180.682L218.031 180.491L218.199 177.974C219.99 178.277 221.492 178.43 222.707 178.43C224.354 178.43 225.177 177.726 225.177 176.319C225.177 175.728 224.961 175.256 224.53 174.905C224.114 174.552 223.562 174.377 222.875 174.377H219.686V171.642H222.875C223.403 171.642 223.867 171.419 224.266 170.972C224.682 170.525 224.889 170.028 224.889 169.485C224.889 168.35 224.098 167.783 222.515 167.783C221.412 167.783 220.239 167.894 218.992 168.118L218.367 168.214L218.151 165.768Z" fill="#262626"></path>
                  </g>
                  <g id="fc7015754bb0283e9600d8af1a7bd3bb">
                    <path id="bb91a504c93357fadadb679f2c00742c" d="M124.944 219.386H121.1V207.972H124.944C125.928 207.972 126.74 208.077 127.377 208.291C128.015 208.492 128.508 208.833 128.855 209.315C129.213 209.785 129.459 210.345 129.593 210.993C129.727 211.631 129.795 212.466 129.795 213.494C129.795 214.523 129.733 215.379 129.61 216.062C129.486 216.734 129.251 217.338 128.905 217.875C128.569 218.402 128.076 218.788 127.428 219.034C126.778 219.269 125.951 219.386 124.944 219.386ZM127.377 214.854C127.399 214.495 127.411 214.004 127.411 213.377C127.411 212.739 127.388 212.229 127.344 211.849C127.298 211.468 127.193 211.122 127.025 210.809C126.857 210.496 126.605 210.282 126.27 210.171C125.945 210.047 125.502 209.986 124.944 209.986H123.416V217.372H124.944C125.783 217.372 126.392 217.16 126.773 216.734C127.097 216.387 127.298 215.76 127.377 214.854V214.854ZM133.449 216.146C133.46 216.662 133.594 217.036 133.852 217.271C134.119 217.495 134.501 217.607 134.992 217.607C136.034 217.607 136.962 217.573 137.78 217.506L138.25 217.456L138.282 219.117C136.996 219.43 135.833 219.587 134.791 219.587C133.527 219.587 132.61 219.252 132.038 218.58C131.467 217.909 131.183 216.818 131.183 215.307C131.183 212.297 132.419 210.792 134.891 210.792C137.331 210.792 138.552 212.057 138.552 214.585L138.383 216.146H133.449ZM136.335 214.434C136.335 213.763 136.229 213.299 136.016 213.041C135.804 212.772 135.43 212.638 134.891 212.638C134.366 212.638 133.991 212.777 133.767 213.058C133.555 213.326 133.443 213.786 133.432 214.434H136.335ZM146.185 213.091C144.797 212.913 143.824 212.823 143.264 212.823C142.716 212.823 142.357 212.873 142.19 212.974C142.032 213.075 141.955 213.236 141.955 213.461C141.955 213.673 142.061 213.824 142.273 213.914C142.498 213.992 143.056 214.115 143.952 214.283C144.858 214.44 145.502 214.703 145.882 215.072C146.264 215.441 146.453 216.04 146.453 216.868C146.453 218.681 145.328 219.587 143.079 219.587C142.341 219.587 141.446 219.487 140.393 219.285L139.856 219.185L139.923 217.305C141.311 217.483 142.273 217.573 142.811 217.573C143.359 217.573 143.728 217.523 143.918 217.422C144.12 217.311 144.221 217.149 144.221 216.935C144.221 216.722 144.115 216.566 143.903 216.465C143.7 216.365 143.163 216.241 142.29 216.096C141.429 215.951 140.786 215.705 140.36 215.357C139.934 215.011 139.722 214.395 139.722 213.511C139.722 212.617 140.024 211.944 140.628 211.497C141.233 211.038 142.011 210.809 142.962 210.809C143.622 210.809 144.523 210.915 145.664 211.128L146.218 211.228L146.185 213.091ZM155.21 207.636V219.386H152.978V219.034C152.195 219.403 151.518 219.587 150.947 219.587C149.726 219.587 148.876 219.235 148.395 218.53C147.913 217.825 147.674 216.712 147.674 215.19C147.674 213.657 147.959 212.543 148.53 211.849C149.111 211.144 149.984 210.792 151.148 210.792C151.506 210.792 152.004 210.848 152.642 210.96L152.961 211.027V207.636H155.21ZM152.726 217.372L152.961 217.321V212.907C152.345 212.795 151.797 212.739 151.316 212.739C150.41 212.739 149.956 213.545 149.956 215.156C149.956 216.029 150.057 216.65 150.259 217.019C150.46 217.389 150.79 217.573 151.249 217.573C151.719 217.573 152.212 217.506 152.726 217.372V217.372ZM159.136 216.146C159.147 216.662 159.281 217.036 159.539 217.271C159.806 217.495 160.187 217.607 160.679 217.607C161.72 217.607 162.649 217.573 163.465 217.506L163.935 217.456L163.97 219.117C162.682 219.43 161.518 219.587 160.477 219.587C159.214 219.587 158.295 219.252 157.725 218.58C157.154 217.909 156.869 216.818 156.869 215.307C156.869 212.297 158.106 210.792 160.578 210.792C163.018 210.792 164.237 212.057 164.237 214.585L164.071 216.146H159.136ZM162.022 214.434C162.022 213.763 161.916 213.299 161.703 213.041C161.491 212.772 161.115 212.638 160.578 212.638C160.053 212.638 159.678 212.777 159.453 213.058C159.241 213.326 159.13 213.786 159.118 214.434H162.022ZM175.509 208.308V219.386H173.192V210.926L170.792 212.47L169.735 210.741L173.394 208.308H175.509ZM182.048 217.573C183.536 217.573 184.281 216.667 184.281 214.854L183.928 214.971C183.157 215.228 182.57 215.357 182.167 215.357C180.946 215.357 180.006 215.061 179.346 214.468C178.685 213.874 178.355 212.997 178.355 211.833C178.355 210.658 178.72 209.745 179.446 209.096C180.173 208.436 181.204 208.106 182.535 208.106C183.878 208.106 184.902 208.605 185.608 209.6C186.313 210.584 186.665 212.057 186.665 214.015C186.665 215.962 186.272 217.377 185.489 218.261C184.706 219.146 183.56 219.587 182.048 219.587C181.175 219.587 180.241 219.464 179.245 219.218L178.725 219.101L178.926 217.321C180.069 217.489 181.108 217.573 182.048 217.573V217.573ZM182.368 213.343C182.881 213.343 183.435 213.242 184.029 213.041L184.297 212.957C184.297 211.066 183.67 210.12 182.419 210.12C181.88 210.12 181.467 210.271 181.175 210.574C180.884 210.865 180.739 211.279 180.739 211.816C180.739 212.834 181.282 213.343 182.368 213.343V213.343ZM195.605 210.372C194.462 210.204 193.472 210.12 192.633 210.12C191.044 210.12 190.249 210.981 190.249 212.705L190.603 212.605C191.34 212.392 191.928 212.286 192.364 212.286C193.629 212.286 194.58 212.576 195.218 213.159C195.857 213.74 196.174 214.646 196.174 215.878C196.174 217.098 195.816 218.02 195.101 218.647C194.384 219.273 193.344 219.587 191.978 219.587C190.624 219.587 189.6 219.096 188.907 218.11C188.213 217.114 187.865 215.655 187.865 213.729C187.865 211.805 188.264 210.389 189.058 209.483C189.852 208.565 190.994 208.106 192.482 208.106C193.356 208.106 194.29 208.228 195.285 208.475L195.806 208.593L195.605 210.372ZM192.163 214.3C191.637 214.3 191.088 214.395 190.518 214.585L190.232 214.669C190.232 216.606 190.859 217.573 192.112 217.573C192.651 217.573 193.063 217.427 193.356 217.137C193.646 216.835 193.791 216.415 193.791 215.878C193.791 214.825 193.249 214.3 192.163 214.3V214.3ZM198.416 208.912C199.144 208.375 200.118 208.106 201.337 208.106C202.556 208.106 203.542 208.375 204.293 208.912C205.042 209.449 205.416 210.194 205.416 211.144C205.416 211.793 205.338 212.28 205.181 212.605C205.025 212.928 204.7 213.287 204.207 213.679C204.7 214.093 205.051 214.485 205.265 214.854C205.478 215.223 205.584 215.733 205.584 216.381C205.584 217.477 205.193 218.289 204.409 218.815C203.626 219.33 202.602 219.587 201.337 219.587C198.54 219.587 197.141 218.58 197.141 216.566C197.141 215.85 197.247 215.296 197.46 214.904C197.684 214.501 198.042 214.093 198.534 213.679C198.064 213.299 197.746 212.928 197.577 212.571C197.409 212.202 197.325 211.72 197.325 211.128C197.325 210.176 197.69 209.438 198.416 208.912ZM199.625 216.029C199.625 217.013 200.202 217.506 201.354 217.506C202.518 217.506 203.101 217.013 203.101 216.029C203.101 215.447 202.77 215.027 202.109 214.77H200.632C199.961 215.027 199.625 215.447 199.625 216.029ZM201.371 210.188C200.867 210.188 200.481 210.299 200.212 210.523C199.945 210.747 199.81 211.088 199.81 211.547C199.81 212.006 200.084 212.425 200.632 212.806H202.109C202.657 212.425 202.932 211.99 202.932 211.497C202.932 210.624 202.411 210.188 201.371 210.188" fill="#262626"></path>
                  </g>
                  <path id="0da1a2f513d8db1101d0bd7aaa2d3a78" d="M61.1078 197.805H264.333V194.208H61.1078V197.805Z" fill="#262626"></path>
                  <path id="c2d2d2043f3a10d3567a3354c40cd7d3" d="M79.0924 233.774H246.349V230.177H79.0924V233.774Z" fill="#262626"></path>
                </g>
              </g>
            </g>
          </g>
        </g>
      </g>
    </g>
  </g>
</svg>