<svg width="77" height="68" viewBox="0 0 77 68" fill="none" xmlns="http://www.w3.org/2000/svg">
<g clip-path="url(#clip0)">
<path d="M39.8312 52.4778H37.221L1.98373 36.9557C1.5629 36.8059 1.17761 36.5721 0.851775 36.2686C0.525938 35.9652 0.266507 35.5986 0.0895852 35.1916C-0.0873364 34.7846 -0.177973 34.3459 -0.176699 33.9028C-0.175425 33.4596 -0.0822667 33.0215 0.0969926 32.6155C0.276252 32.2095 0.537787 31.8444 0.865363 31.5428C1.19294 31.2412 1.57957 31.0095 2.00125 30.8622C2.42293 30.7148 2.87066 30.655 3.31666 30.6863C3.76266 30.7176 4.1974 30.8395 4.5939 31.0443L38.5261 45.9844L72.4192 31.0443C73.1975 30.7674 74.053 30.7938 74.8125 31.1181C75.572 31.4424 76.1789 32.0405 76.5104 32.7914C76.842 33.5424 76.8735 34.39 76.5985 35.1631C76.3236 35.9361 75.7627 36.5768 75.0293 36.9557L39.8312 52.4778Z" fill="white"/>
<path d="M39.8312 36.9557H37.221L1.98373 21.4335V15.5222L37.221 0H39.8312L75.0685 15.5222V21.4335L39.8312 36.9557ZM11.302 18.4714L38.5 30.4622L65.711 18.4714L38.5 6.46757L11.302 18.4714Z" fill="white"/>
<path d="M39.8312 68H37.221L1.98373 52.4778C1.25035 52.099 0.689468 51.4583 0.414515 50.6853C0.139563 49.9122 0.171053 49.0645 0.502618 48.3136C0.834183 47.5627 1.44108 46.9646 2.20058 46.6403C2.96009 46.3159 3.81552 46.2896 4.5939 46.5665L38.5261 61.5066L72.4192 46.5665C73.1975 46.2896 74.053 46.3159 74.8125 46.6403C75.572 46.9646 76.1789 47.5627 76.5104 48.3136C76.842 49.0645 76.8735 49.9122 76.5985 50.6853C76.3236 51.4583 75.7627 52.099 75.0293 52.4778L39.8312 68Z" fill="white"/>
</g>
<defs>
<clipPath id="clip0">
<rect width="77" height="68" fill="white"/>
</clipPath>
</defs>
</svg>
