<svg width="272" height="274" viewBox="0 0 272 274" fill="none" xmlns="http://www.w3.org/2000/svg">
<path d="M146.478 0.877655C139.443 2.67578 132.878 5.26596 129.884 7.38516C126.933 9.50439 123.597 14.7917 120.39 22.4766C119.77 23.9536 119.192 25.2594 119.086 25.3878C118.979 25.5163 118.38 25.7089 117.76 25.7731C116.669 25.923 110.874 27.0575 109.997 27.3144C109.698 27.4 109.228 27.1646 108.394 26.5224C104.93 23.8252 102.62 21.2992 101.765 19.3085C101.016 17.5746 101.358 15.2198 102.834 11.9447C103.518 10.4249 105.87 6.42188 107.004 4.83783C107.431 4.25986 107.774 3.70328 107.774 3.59625C107.774 3.16812 100.482 7.14969 96.4616 9.78265C91.4579 13.0578 88.2717 15.8835 87.0742 18.1525C85.4491 21.2136 84.2088 27.507 83.6956 34.9992L83.5673 37.1613L82.0277 37.9961C81.1937 38.4456 79.2692 39.5802 77.7296 40.522C74.4792 42.4914 74.7358 42.47 71.1862 41.0144C68.1925 39.8156 66.6956 38.9166 65.3057 37.568C64.4075 36.6689 64.1723 36.2622 63.8302 35.042C63.1459 32.4947 63.7233 26.8006 65.1987 21.9414C65.4126 21.1708 65.5409 20.55 65.4553 20.55C65.2629 20.55 62.6113 23.29 60.7082 25.4734C55.1698 31.7883 51.5987 37.3325 50.9145 40.6291C50.2516 43.7972 51 49.8766 52.9459 57.0905L53.7157 59.9161L51.8126 62.0139C50.7862 63.1913 49.2679 64.968 48.434 65.9955L46.9371 67.8578H44.5849C40.2654 67.8578 37.0579 67.1086 35.4968 65.7814C33.8717 64.39 32.8025 61.4574 32.1824 56.7694C32.0113 55.4422 31.8402 53.6013 31.8402 52.7022C31.8189 51.8031 31.7547 50.7542 31.6692 50.4117C31.5195 49.791 31.4767 49.8338 30.7069 51.482C28.2692 56.6409 25.7245 63.4267 24.6767 67.5367C24.1849 69.4847 24.078 70.3624 24.078 72.5672C24.078 74.9861 24.1207 75.3928 24.6767 76.8484C25.9597 80.2306 28.4402 84.726 31.4767 89.2213L32.9736 91.4047L32.1824 93.2885C31.7333 94.3159 30.878 96.4994 30.2579 98.1477L29.1673 101.145L26.9434 101.851C20.7635 103.799 17.5132 103.521 15.1396 100.845C13.4289 98.8755 10.8629 94.3374 9.51572 90.8053C8.95974 89.3925 8.55345 88.8574 8.55345 89.521C8.55345 89.6708 8.40377 91.2977 8.25408 93.1172C7.54842 100.695 7.63396 107.331 8.44654 111.42C9.25911 115.53 11.8252 118.762 18.5182 124.092C19.7157 125.034 21.3409 126.275 22.1321 126.853L23.5862 127.881L23.4365 130.107C23.3723 131.349 23.3082 133.725 23.3082 135.416V138.477L21.127 140.104C19.9296 141.003 18.0478 142.18 16.9572 142.715C15.2893 143.55 14.7547 143.722 13.4289 143.786C11.9535 143.893 11.7824 143.85 10.1572 143.037C8.01886 141.945 5.02515 139.483 2.24528 136.508C1.09056 135.266 0.085528 134.26 0.0427607 134.303C-0.128309 134.495 2.07421 142.566 3.25031 145.991C5.23899 151.792 7.35597 155.945 9.21635 157.678C11.5472 159.84 15.995 161.96 22.966 164.293L27.0289 165.642L27.6277 167.718C27.9484 168.874 28.6113 171.015 29.1031 172.492L30.0013 175.167L29.595 175.917C28.0981 178.699 24.7195 182.531 22.8163 183.58C21.8755 184.115 21.4692 184.201 20.2075 184.179C17.556 184.158 13.5572 182.767 9.15219 180.369C7.76226 179.62 6.62892 179.106 6.62892 179.213C6.62892 179.342 7.27043 180.412 8.04025 181.611C12.8943 189.017 18.0478 195.118 21.3623 197.301C23.6717 198.864 26.6013 199.528 32.7384 199.956C34.7912 200.084 37.8063 200.127 39.4528 200.063L42.4465 199.913L43.7509 201.797C44.478 202.824 45.8038 204.644 46.7233 205.821L48.3912 207.94L47.8994 209.995C46.4667 216.032 44.5421 219.136 41.7195 220.013C39.9446 220.549 33.2729 220.506 30.044 219.906C28.761 219.671 27.6491 219.521 27.5849 219.564C27.3497 219.778 32.6101 223.717 36.8013 226.478C42.4465 230.181 47.2151 232.258 50.1233 232.258C53.3736 232.258 59.0402 230.824 65.6264 228.362L68.4704 227.292L69.3686 227.955C69.839 228.319 71.6138 229.539 73.2818 230.674L76.3182 232.729L76.4893 234.142C76.8101 236.839 76.7031 241.634 76.2541 243.218C75.5698 245.722 73.9019 247.114 70.0314 248.398C68.2352 248.998 64.0013 249.918 62.0126 250.132C60.1522 250.346 59.7245 250.453 60.088 250.667C60.2591 250.753 61.8415 251.331 63.595 251.93C72.6403 255.055 81.044 256.597 84.6792 255.826C87.9723 255.12 93.7245 251.502 99.8402 246.279L101.936 244.481L105.443 245.444C107.367 245.979 109.335 246.536 109.805 246.664C110.618 246.921 110.682 247.007 111.772 249.426C113.355 252.936 114.018 255.27 114.039 257.517C114.06 259.551 113.782 260.321 112.371 261.97C110.789 263.789 106.277 266.957 102.77 268.691C102 269.077 101.358 269.483 101.358 269.59C101.358 269.869 110.511 269.569 114.317 269.184C120.219 268.563 124.196 267.6 126.249 266.272C129.221 264.389 133.07 259.636 137.369 252.572C138.48 250.731 139.165 249.811 139.486 249.725C139.742 249.661 140.833 249.597 141.881 249.575C142.95 249.575 144.66 249.49 145.687 249.426L147.59 249.276L149.771 251.523C153 254.884 154.732 257.688 154.967 259.979C155.224 262.548 153.043 266.465 148.424 271.603C147.333 272.823 146.478 273.85 146.542 273.914C146.841 274.214 156.657 270.404 160.912 268.327C164.675 266.486 167.07 264.988 168.589 263.447C171.091 260.921 173.357 254.82 175.132 245.765C175.474 244.074 175.816 242.618 175.923 242.533C176.201 242.276 182.873 239.536 183.215 239.536C183.728 239.536 187.748 241.57 189.566 242.747C191.576 244.053 193.608 245.958 194.185 247.071C195.404 249.426 194.548 254.456 191.875 260.707C191.362 261.927 190.977 262.976 191.042 263.019C191.191 263.168 194.548 260.493 197.585 257.817C200.985 254.841 205.283 250.325 206.652 248.248C208.854 244.93 209.239 242.961 209.068 235.79C209.004 232.75 208.79 229.796 208.491 227.463L207.999 223.824L208.726 223.203C209.132 222.861 210.415 221.683 211.591 220.591L213.73 218.622L215.654 218.815C221.021 219.307 225.426 220.72 227.116 222.454C227.821 223.203 228.57 224.98 228.933 226.842C229.318 228.662 229.447 235.597 229.147 237.438C229.062 238.016 229.083 238.466 229.169 238.466C229.275 238.466 230.238 237.053 231.286 235.298C237.273 225.558 240.01 218.879 239.625 214.897C239.304 211.43 237.23 205.564 234.065 199.207L232.291 195.589L233.616 193.32C234.343 192.078 235.199 190.601 235.52 190.045C235.99 189.21 236.247 188.996 236.995 188.782C241.314 187.604 246.746 187.176 249.013 187.818C251.899 188.653 254.081 192.399 255.962 199.785C256.39 201.518 256.818 202.995 256.882 203.06C257.224 203.424 259.298 193.855 259.897 189.124C260.624 183.387 260.538 179.941 259.597 177.394C258.507 174.504 255.086 170.115 249.718 164.743L246.083 161.125L246.639 158.214C246.938 156.608 247.238 154.96 247.302 154.532C247.43 153.847 247.644 153.654 249.504 152.477C252.284 150.743 253.888 149.951 256.24 149.159C258.849 148.303 260.389 148.26 262.014 149.052C264.195 150.143 267.317 153.44 270.332 157.871C271.914 160.204 271.765 160.012 271.914 159.862C271.979 159.776 271.872 158.342 271.701 156.651C270.696 147.639 269.092 140.682 267.231 137.128C265.478 133.746 259.384 129.444 250.83 125.548C249.355 124.863 248.136 124.306 248.093 124.263C248.029 124.22 247.302 119.383 247.045 117.478C246.917 116.493 246.96 116.429 248.179 114.909C251.322 111.013 254.872 108.144 257.117 107.673C258.614 107.374 260.517 107.78 262.933 108.958C264.772 109.835 268.322 112.126 270.375 113.753C271.081 114.288 271.722 114.738 271.808 114.738C272.107 114.738 271.572 113.56 269.113 108.573C265.435 101.209 262.335 96.371 259.854 94.1661C256.903 91.5331 249.953 89.6922 239.24 88.7289L237.808 88.5791L235.969 85.0256L234.151 81.4722L234.6 80.0594C236.332 74.8149 239.069 70.5764 241.421 69.5061C242.213 69.1422 242.79 69.0566 244.736 69.078C247.452 69.0994 249.996 69.5703 254.145 70.8333C255.663 71.3042 256.967 71.6253 257.031 71.5611C257.096 71.5183 255.406 69.763 253.289 67.6652C246.126 60.6225 241.122 56.9406 237.423 55.9774C235.819 55.5492 231.286 55.5492 228.014 55.9774C225.255 56.3413 222.24 56.8978 218.797 57.7113L216.574 58.225L213.494 55.2924L210.415 52.3383L210.543 49.4485C210.757 44.6749 211.463 41.5281 212.725 39.7086C214.221 37.5466 218.242 36.4763 225.576 36.2836C227.501 36.2408 229.126 36.1552 229.169 36.091C229.318 35.9625 220.957 31.8739 218.006 30.6538C210.265 27.4214 206.096 26.7792 201.969 28.1492C198.654 29.241 192.111 32.666 188.112 35.3631L186.85 36.2194L184.263 35.0206C182.83 34.3784 180.991 33.565 180.157 33.2225L178.66 32.6231L178.169 31.2317C176.629 27.0147 176.094 21.8772 176.992 19.8864C178.062 17.4889 181.59 15.1342 187.535 12.7795C188.882 12.2658 190.186 11.752 190.421 11.6878C191.17 11.4309 190.4 11.2169 187.428 10.8316C181.654 10.1252 179.815 9.99673 175.132 9.99673C169.636 9.99673 167.862 10.2536 165.403 11.4095C162.067 13.015 158.047 16.8681 151.503 24.767C151.075 25.2808 151.033 25.2808 149.365 25.0667C147.761 24.8741 147.611 24.8099 147.013 24.0606C144.447 20.9139 142.287 17.2534 141.774 15.1342C141.624 14.5777 141.56 13.5716 141.603 12.8652C141.774 10.382 144.382 6.16501 148.403 1.86237C149.365 0.834839 150.07 0 149.964 0.0214233C149.878 0.0214233 148.296 0.406738 146.478 0.877655ZM145.943 36.0695C153.834 36.9044 160.313 38.253 167.22 40.5006C189.331 47.6931 208.213 62.1852 220.936 81.6649C231.628 98.0406 237.358 117.349 237.358 137C237.358 172.684 218.712 205.586 188.005 224.038C176.672 230.866 163.521 235.533 150.434 237.374C144.896 238.166 142.33 238.337 136 238.337C126.442 238.337 119 237.395 110.34 235.126C74.3723 225.686 46.3811 197.237 37.5497 161.189C36.5233 157.015 35.8176 153.055 35.2616 148.324C34.8553 144.963 34.7698 143.293 34.7698 137C34.7698 130.664 34.834 129.058 35.2616 125.676C36.7157 113.646 39.7094 103.285 44.7774 92.7961C59.4252 62.4849 88.3572 41.3141 121.566 36.6261C124.346 36.2194 128.174 35.8555 131.189 35.6628C133.862 35.4916 142.864 35.7484 145.943 36.0695Z" fill="#262626"/>
<path d="M227 137C227 187.229 186.063 228 135.5 228C84.9368 228 44 187.229 44 137C44 86.7711 84.9368 46 135.5 46C186.063 46 227 86.7711 227 137Z" stroke="#262626" stroke-width="12"/>
<path d="M163.496 114.495C161.81 121.168 155.813 120.766 155.813 120.766L138.009 101.786L143.07 96.46C143.07 96.46 158.855 110.403 163.496 114.495Z" stroke="#262626" stroke-width="2" stroke-miterlimit="10"/>
<path d="M142.208 97.3692C142.208 97.3692 127.646 83.5762 127.285 82.9753C126.923 82.3737 129.995 80.577 130.117 79.9398C130.237 79.3041 129.1 78.8447 129.092 78.4513C129.084 78.0579 134.808 69.1609 134.634 69.0031C134.462 68.8453 124.995 74.7867 124.995 74.7867C124.995 74.7867 124.114 73.9569 123.187 74.0421C122.261 74.128 114.149 81.6291 113.969 82.3448C113.787 83.0605 114.691 85.7234 114.691 85.7234L113.185 87.269C113.185 87.269 109.758 86.3184 109.209 86.8696C108.658 87.4194 108.764 89.1227 109.209 90.2467C109.652 91.3722 112.651 94.2988 113.727 94.7137C114.804 95.1294 115.67 95.4442 116.197 94.9426C116.724 94.4418 116.378 91.0491 116.378 91.0491L117.824 89.3317C117.824 89.3317 119.661 89.4747 120.535 89.2754C121.409 89.0746 122.915 86.2102 123.548 86.2391C124.18 86.268 138.889 100.86 138.889 100.86" stroke="#262626" stroke-width="2" stroke-miterlimit="10"/>
<path d="M116.762 91.118L113.391 87.2919" stroke="#262626" stroke-width="2" stroke-miterlimit="10"/>
<path d="M132.774 88.3788C132.774 88.3788 155.453 70.0055 155.904 70.0337C156.355 70.0626 161.868 76.0174 161.868 76.0174L162.862 79.207L158.344 79.7116L159.43 83.92L154.187 83.1472L155.904 87.2927L150.753 86.6688L151.928 91.4499L146.776 90.0177L148.492 94.4833L143.432 93.1948L144.344 97.5862" stroke="#262626" stroke-width="2" stroke-miterlimit="10"/>
<path d="M129.091 78.452L124.995 74.7867" stroke="#262626" stroke-width="2" stroke-miterlimit="10"/>
<path d="M117.947 103.162C117.448 103.144 113.324 106.498 113.306 106.997C113.288 107.497 120.995 115.78 121.494 115.798C121.994 115.816 123.03 114.853 124.065 113.889C125.1 112.926 125.136 111.927 125.172 110.927C125.208 109.928 118.447 103.18 117.947 103.162Z" stroke="#262626" stroke-width="2"/>
<path d="M90.1 150.78C88.6867 151.087 87.4133 151.24 86.28 151.24C85.1467 151.24 84.24 151.1 83.56 150.82C82.88 150.54 82.3467 150.093 81.96 149.48C81.5733 148.867 81.3067 148.147 81.16 147.32C81.0133 146.493 80.94 145.453 80.94 144.2C80.94 141.573 81.3067 139.747 82.04 138.72C82.7867 137.68 84.1533 137.16 86.14 137.16C87.2867 137.16 88.6133 137.34 90.12 137.7L90.04 139.9C88.72 139.7 87.62 139.6 86.74 139.6C85.8733 139.6 85.2533 139.72 84.88 139.96C84.5067 140.187 84.2267 140.627 84.04 141.28C83.8667 141.933 83.78 143.047 83.78 144.62C83.78 146.193 83.96 147.287 84.32 147.9C84.6933 148.5 85.4267 148.8 86.52 148.8C87.6267 148.8 88.8 148.707 90.04 148.52L90.1 150.78ZM91.1994 151L94.2594 137.4H99.4994L102.559 151H99.7994L99.2594 148.54H94.4994L93.9594 151H91.1994ZM96.3994 139.68L95.0194 146.14H98.7394L97.3594 139.68H96.3994ZM107.131 146.44V151H104.371V137.4H109.651C112.851 137.4 114.451 138.893 114.451 141.88C114.451 143.653 113.784 144.96 112.451 145.8L114.391 151H111.371L109.791 146.44H107.131ZM109.691 144.08C110.344 144.08 110.831 143.88 111.151 143.48C111.471 143.08 111.631 142.553 111.631 141.9C111.631 141.247 111.457 140.727 111.111 140.34C110.777 139.953 110.291 139.76 109.651 139.76H107.131V144.08H109.691ZM121.773 147.04H119.533V151H116.773V137.4H121.773C125 137.4 126.613 138.973 126.613 142.12C126.613 143.707 126.2 144.927 125.373 145.78C124.56 146.62 123.36 147.04 121.773 147.04ZM119.533 144.68H121.753C123.126 144.68 123.813 143.827 123.813 142.12C123.813 141.28 123.646 140.68 123.313 140.32C122.98 139.947 122.46 139.76 121.753 139.76H119.533V144.68ZM128.55 151V137.4H131.31V151H128.55ZM133.053 139.84V137.4H143.053V139.84H139.453V151H136.693V139.84H133.053ZM144.8 151V137.4H153.6V139.8H147.56V142.98H152.4V145.34H147.56V148.6H153.6V151H144.8ZM164.397 150.78C162.984 151.087 161.71 151.24 160.577 151.24C159.444 151.24 158.537 151.1 157.857 150.82C157.177 150.54 156.644 150.093 156.257 149.48C155.87 148.867 155.604 148.147 155.457 147.32C155.31 146.493 155.237 145.453 155.237 144.2C155.237 141.573 155.604 139.747 156.337 138.72C157.084 137.68 158.45 137.16 160.437 137.16C161.584 137.16 162.91 137.34 164.417 137.7L164.337 139.9C163.017 139.7 161.917 139.6 161.037 139.6C160.17 139.6 159.55 139.72 159.177 139.96C158.804 140.187 158.524 140.627 158.337 141.28C158.164 141.933 158.077 143.047 158.077 144.62C158.077 146.193 158.257 147.287 158.617 147.9C158.99 148.5 159.724 148.8 160.817 148.8C161.924 148.8 163.097 148.707 164.337 148.52L164.397 150.78ZM175.951 151V148.82H170.351V146.72L173.611 137.8H176.651L173.111 146.42H175.951V142.72H178.711V146.42H179.971V148.82H178.711V151H175.951ZM181.982 138.28C183.209 137.8 184.576 137.56 186.082 137.56C187.602 137.56 188.709 137.853 189.402 138.44C190.096 139.013 190.442 139.94 190.442 141.22C190.442 142.5 189.929 143.48 188.902 144.16C189.542 144.507 189.996 144.867 190.262 145.24C190.542 145.613 190.682 146.207 190.682 147.02C190.682 148.447 190.322 149.507 189.602 150.2C188.896 150.893 187.756 151.24 186.182 151.24C185.022 151.24 183.802 151.067 182.522 150.72L181.882 150.56L182.022 148.46C183.516 148.713 184.769 148.84 185.782 148.84C187.156 148.84 187.842 148.253 187.842 147.08C187.842 146.587 187.662 146.193 187.302 145.9C186.956 145.607 186.496 145.46 185.922 145.46H183.262V143.18H185.922C186.362 143.18 186.749 142.993 187.082 142.62C187.429 142.247 187.602 141.833 187.602 141.38C187.602 140.433 186.942 139.96 185.622 139.96C184.702 139.96 183.722 140.053 182.682 140.24L182.162 140.32L181.982 138.28Z" fill="#262626"/>
<path d="M104.242 183H101.036V173.48H104.242C105.063 173.48 105.74 173.569 106.272 173.746C106.804 173.914 107.215 174.199 107.504 174.6C107.803 174.992 108.008 175.459 108.12 176C108.232 176.532 108.288 177.227 108.288 178.086C108.288 178.945 108.237 179.659 108.134 180.228C108.031 180.788 107.835 181.292 107.546 181.74C107.266 182.179 106.855 182.501 106.314 182.706C105.773 182.902 105.082 183 104.242 183ZM106.272 179.22C106.291 178.921 106.3 178.511 106.3 177.988C106.3 177.456 106.281 177.031 106.244 176.714C106.207 176.397 106.118 176.107 105.978 175.846C105.838 175.585 105.628 175.407 105.348 175.314C105.077 175.211 104.709 175.16 104.242 175.16H102.968V181.32H104.242C104.942 181.32 105.451 181.143 105.768 180.788C106.039 180.499 106.207 179.976 106.272 179.22ZM111.336 180.298C111.345 180.727 111.457 181.04 111.672 181.236C111.896 181.423 112.213 181.516 112.624 181.516C113.492 181.516 114.266 181.488 114.948 181.432L115.34 181.39L115.368 182.776C114.294 183.037 113.324 183.168 112.456 183.168C111.401 183.168 110.636 182.888 110.16 182.328C109.684 181.768 109.446 180.858 109.446 179.598C109.446 177.087 110.477 175.832 112.54 175.832C114.574 175.832 115.592 176.887 115.592 178.996L115.452 180.298H111.336ZM113.744 178.87C113.744 178.31 113.655 177.923 113.478 177.708C113.3 177.484 112.988 177.372 112.54 177.372C112.101 177.372 111.788 177.489 111.602 177.722C111.424 177.946 111.331 178.329 111.322 178.87H113.744ZM121.958 177.75C120.801 177.601 119.989 177.526 119.522 177.526C119.065 177.526 118.766 177.568 118.626 177.652C118.496 177.736 118.43 177.871 118.43 178.058C118.43 178.235 118.519 178.361 118.696 178.436C118.883 178.501 119.35 178.604 120.096 178.744C120.852 178.875 121.389 179.094 121.706 179.402C122.024 179.71 122.182 180.209 122.182 180.9C122.182 182.412 121.244 183.168 119.368 183.168C118.752 183.168 118.006 183.084 117.128 182.916L116.68 182.832L116.736 181.264C117.894 181.413 118.696 181.488 119.144 181.488C119.602 181.488 119.91 181.446 120.068 181.362C120.236 181.269 120.32 181.133 120.32 180.956C120.32 180.779 120.232 180.648 120.054 180.564C119.886 180.48 119.438 180.377 118.71 180.256C117.992 180.135 117.455 179.929 117.1 179.64C116.746 179.351 116.568 178.837 116.568 178.1C116.568 177.353 116.82 176.793 117.324 176.42C117.828 176.037 118.477 175.846 119.27 175.846C119.821 175.846 120.572 175.935 121.524 176.112L121.986 176.196L121.958 177.75ZM129.486 173.2V183H127.624V182.706C126.971 183.014 126.406 183.168 125.93 183.168C124.913 183.168 124.203 182.874 123.802 182.286C123.401 181.698 123.2 180.769 123.2 179.5C123.2 178.221 123.438 177.293 123.914 176.714C124.399 176.126 125.127 175.832 126.098 175.832C126.397 175.832 126.812 175.879 127.344 175.972L127.61 176.028V173.2H129.486ZM127.414 181.32L127.61 181.278V177.596C127.097 177.503 126.639 177.456 126.238 177.456C125.482 177.456 125.104 178.128 125.104 179.472C125.104 180.2 125.188 180.718 125.356 181.026C125.524 181.334 125.799 181.488 126.182 181.488C126.574 181.488 126.985 181.432 127.414 181.32ZM132.76 180.298C132.769 180.727 132.881 181.04 133.096 181.236C133.32 181.423 133.637 181.516 134.048 181.516C134.916 181.516 135.69 181.488 136.372 181.432L136.764 181.39L136.792 182.776C135.718 183.037 134.748 183.168 133.88 183.168C132.825 183.168 132.06 182.888 131.584 182.328C131.108 181.768 130.87 180.858 130.87 179.598C130.87 177.087 131.901 175.832 133.964 175.832C135.998 175.832 137.016 176.887 137.016 178.996L136.876 180.298H132.76ZM135.168 178.87C135.168 178.31 135.079 177.923 134.902 177.708C134.724 177.484 134.412 177.372 133.964 177.372C133.525 177.372 133.212 177.489 133.026 177.722C132.848 177.946 132.755 178.329 132.746 178.87H135.168ZM146.416 173.76V183H144.484V175.944L142.482 177.232L141.6 175.79L144.652 173.76H146.416ZM151.87 181.488C153.112 181.488 153.732 180.732 153.732 179.22L153.438 179.318C152.794 179.533 152.304 179.64 151.968 179.64C150.951 179.64 150.167 179.393 149.616 178.898C149.066 178.403 148.79 177.671 148.79 176.7C148.79 175.72 149.094 174.959 149.7 174.418C150.307 173.867 151.166 173.592 152.276 173.592C153.396 173.592 154.25 174.007 154.838 174.838C155.426 175.659 155.72 176.887 155.72 178.52C155.72 180.144 155.394 181.325 154.74 182.062C154.087 182.799 153.13 183.168 151.87 183.168C151.142 183.168 150.363 183.065 149.532 182.86L149.098 182.762L149.266 181.278C150.218 181.418 151.086 181.488 151.87 181.488ZM152.136 177.96C152.566 177.96 153.028 177.876 153.522 177.708L153.746 177.638C153.746 176.061 153.224 175.272 152.178 175.272C151.73 175.272 151.385 175.398 151.142 175.65C150.9 175.893 150.778 176.238 150.778 176.686C150.778 177.535 151.231 177.96 152.136 177.96ZM163.176 175.482C162.224 175.342 161.398 175.272 160.698 175.272C159.373 175.272 158.71 175.991 158.71 177.428L159.004 177.344C159.62 177.167 160.11 177.078 160.474 177.078C161.529 177.078 162.322 177.321 162.854 177.806C163.386 178.291 163.652 179.047 163.652 180.074C163.652 181.091 163.354 181.861 162.756 182.384C162.159 182.907 161.291 183.168 160.152 183.168C159.023 183.168 158.169 182.757 157.59 181.936C157.012 181.105 156.722 179.887 156.722 178.282C156.722 176.677 157.054 175.496 157.716 174.74C158.379 173.975 159.331 173.592 160.572 173.592C161.3 173.592 162.08 173.695 162.91 173.9L163.344 173.998L163.176 175.482ZM160.306 178.758C159.868 178.758 159.41 178.837 158.934 178.996L158.696 179.066C158.696 180.681 159.219 181.488 160.264 181.488C160.712 181.488 161.058 181.367 161.3 181.124C161.543 180.872 161.664 180.522 161.664 180.074C161.664 179.197 161.212 178.758 160.306 178.758ZM165.522 174.264C166.129 173.816 166.941 173.592 167.958 173.592C168.976 173.592 169.797 173.816 170.422 174.264C171.048 174.712 171.36 175.333 171.36 176.126C171.36 176.667 171.295 177.073 171.164 177.344C171.034 177.615 170.763 177.913 170.352 178.24C170.763 178.585 171.057 178.912 171.234 179.22C171.412 179.528 171.5 179.953 171.5 180.494C171.5 181.409 171.174 182.085 170.52 182.524C169.867 182.953 169.013 183.168 167.958 183.168C165.625 183.168 164.458 182.328 164.458 180.648C164.458 180.051 164.547 179.589 164.724 179.262C164.911 178.926 165.21 178.585 165.62 178.24C165.228 177.923 164.962 177.615 164.822 177.316C164.682 177.008 164.612 176.607 164.612 176.112C164.612 175.319 164.916 174.703 165.522 174.264ZM166.53 180.2C166.53 181.021 167.011 181.432 167.972 181.432C168.943 181.432 169.428 181.021 169.428 180.2C169.428 179.715 169.153 179.365 168.602 179.15H167.37C166.81 179.365 166.53 179.715 166.53 180.2ZM167.986 175.328C167.566 175.328 167.244 175.421 167.02 175.608C166.796 175.795 166.684 176.079 166.684 176.462C166.684 176.845 166.913 177.195 167.37 177.512H168.602C169.06 177.195 169.288 176.831 169.288 176.42C169.288 175.692 168.854 175.328 167.986 175.328Z" fill="#262626"/>
<path d="M45 164H228" stroke="#262626" stroke-width="4"/>
<path d="M58.9995 193.122H211" stroke="#262626" stroke-width="4"/>
<path d="M129 91C129 91 119 99.5 118.116 99.3369C117.233 99.1737 117.391 97.5694 116.695 97.7847C116 98 107.046 105.943 107.028 106.442C107.01 106.942 122.643 124.016 123.135 124.034C123.627 124.051 131.783 116.34 132.311 115.358C132.838 114.377 130.56 109.291 130.56 109.291L134.458 110.432L133.636 105.9L138.008 107.558C138.008 107.558 137.99 102 138.008 101.5" stroke="#262626" stroke-width="2"/>
</svg>
