<svg width="88" height="85" viewBox="0 0 88 85" fill="none" xmlns="http://www.w3.org/2000/svg">
<g clip-path="url(#clip0)">
<path d="M19.1363 85.0001C13.3911 84.9595 7.70451 83.8457 2.37155 81.7165C1.70496 81.461 1.1265 81.0193 0.705489 80.4445C0.284482 79.8698 0.0387917 79.1863 -0.00213633 78.4759C-0.0430644 77.7656 0.122506 77.0586 0.474732 76.4396C0.826958 75.8206 1.3509 75.316 1.98375 74.9861C7.05494 72.2969 10.2468 69.0431 11.4699 65.3287C12.5139 62.1789 11.8726 59.5045 11.1865 56.6816C10.4407 53.4872 9.50104 49.654 11.6339 45.6276C13.6624 41.7795 18.1519 38.6594 23.5661 37.2925C26.531 36.4713 29.6358 36.2784 32.6801 36.7262C35.7244 37.174 38.6407 38.2527 41.2407 39.8926C51.9349 47.0539 51.2488 62.6097 46.64 71.0934C41.8373 79.9931 31.1431 85.0001 19.1363 85.0001ZM12.2753 76.977C25.2814 79.5176 36.1397 74.7781 40.1221 67.5573C43.2543 61.7183 44.0597 50.694 37.139 46.0584C35.3915 45.0303 33.4518 44.3683 31.4386 44.1128C29.4253 43.8573 27.3809 44.0138 25.4305 44.5727C22.0895 45.4047 19.2556 47.2173 18.2265 49.1637C17.436 50.6494 17.7641 52.2243 18.4502 55.1067C19.7574 59.2307 19.7938 63.6503 18.5546 67.795C17.311 71.3537 15.1446 74.5215 12.2753 76.977Z" fill="white"/>
<path d="M45.4915 55.8793C44.7358 55.8821 43.997 55.6562 43.3731 55.2314C42.7492 54.8065 42.2695 54.2029 41.9978 53.5004C41.7261 52.7979 41.675 52.0298 41.8515 51.2978C42.0279 50.5657 42.4235 49.9044 42.9858 49.4014L78.6034 17.5617C79.1931 17.0339 79.6689 16.3923 80.0019 15.6756C80.3349 14.959 80.5181 14.1825 80.5405 13.3931C80.5628 12.6038 80.4237 11.8182 80.1317 11.084C79.8398 10.3499 79.401 9.68253 78.842 9.12257C78.2786 8.57355 77.6115 8.1412 76.8793 7.85048C76.1471 7.55976 75.3644 7.41644 74.5763 7.42881C73.782 7.44693 73 7.62777 72.2789 7.96007C71.5578 8.29237 70.9132 8.769 70.3851 9.36029L39.1675 43.9784C38.5023 44.6938 37.5813 45.1199 36.6034 45.1648C35.6255 45.2097 34.6691 44.8697 33.9407 44.2182C33.2123 43.5667 32.7702 42.656 32.7101 41.6827C32.6499 40.7094 32.9763 39.7515 33.619 39.0159L64.8217 4.4573C66.6349 2.44402 69.0236 1.03229 71.6665 0.412077C74.3093 -0.208138 77.0795 -0.00707248 79.6042 0.988217C82.1289 1.98351 84.287 3.72526 85.788 5.97908C87.289 8.23291 88.061 10.8907 88 13.5947C87.9489 15.3985 87.5252 17.1724 86.7554 18.8059C85.9855 20.4394 84.886 21.8973 83.5254 23.0887L47.9675 54.9729C47.2835 55.5703 46.4011 55.8933 45.4915 55.8793Z" fill="white"/>
</g>
<defs>
<clipPath id="clip0">
<rect width="88" height="85" fill="white"/>
</clipPath>
</defs>
</svg>
