<svg width="84" height="83" viewBox="0 0 84 83" fill="none" xmlns="http://www.w3.org/2000/svg">
<g clip-path="url(#clip0)">
<path d="M72.4265 83.0001H72.2984C70.9245 82.9909 69.5667 82.7027 68.3068 82.153C67.0469 81.6032 65.9109 80.8032 64.9675 79.8012L29.7931 42.6711C25.7988 44.1881 21.4506 44.5056 17.2794 43.5847C13.1083 42.6637 9.29467 40.5443 6.30422 37.4851C3.31377 34.426 1.2759 30.5595 0.439423 26.3577C-0.397054 22.1559 0.00406317 17.8007 1.5938 13.8239C1.81662 13.2786 2.17003 12.7968 2.62272 12.4212C3.07542 12.0457 3.61344 11.7879 4.18915 11.6706C4.76486 11.5534 5.36049 11.5804 5.92332 11.7493C6.48614 11.9181 6.99878 12.2236 7.41586 12.6386L15.0315 20.2788C15.7278 20.9449 16.653 21.3165 17.6152 21.3165C18.5773 21.3165 19.5025 20.9449 20.1988 20.2788C20.8831 19.588 21.2669 18.6536 21.2664 17.6797C21.2668 17.1983 21.1713 16.7216 20.9856 16.2777C20.7998 15.8338 20.5274 15.4317 20.1845 15.0949L12.5404 7.46893C12.1267 7.0505 11.8223 6.53621 11.654 5.97157C11.4857 5.40693 11.4588 4.80937 11.5756 4.23181C11.6924 3.65424 11.9494 3.11449 12.3238 2.66033C12.6982 2.20617 13.1784 1.85162 13.7219 1.62808C17.7514 -0.0217642 22.1794 -0.430171 26.4412 0.454949C30.703 1.34007 34.6054 3.4786 37.6507 6.5978C40.5655 9.62372 42.569 13.4142 43.4303 17.5325C44.2916 21.6508 43.9757 25.9294 42.5191 29.8755L79.5297 65.1776C81.0205 66.6036 82.0512 68.4449 82.4888 70.4641C82.9264 72.4834 82.7508 74.5878 81.9848 76.506C81.2188 78.4242 79.8974 80.0681 78.1912 81.2256C76.4849 82.3832 74.4721 83.0012 72.4123 83.0001H72.4265ZM30.6329 34.8167C31.1155 34.8158 31.5931 34.9142 32.0362 35.1058C32.4794 35.2974 32.8787 35.5781 33.2095 35.9306L70.1205 74.86C70.4119 75.1701 70.7624 75.4184 71.1511 75.5901C71.5399 75.7618 71.9591 75.8535 72.3838 75.8597C72.81 75.8697 73.2336 75.7912 73.628 75.629C74.0225 75.4668 74.3791 75.2244 74.6757 74.9171C74.9773 74.6169 75.2149 74.2583 75.3739 73.863C75.533 73.4677 75.6102 73.0441 75.6009 72.6179C75.5958 72.193 75.5062 71.7733 75.3376 71.3834C75.169 70.9936 74.9246 70.6413 74.6187 70.3473L35.8002 33.3172C35.2287 32.7806 34.8504 32.0692 34.7242 31.2942C34.598 30.5192 34.7311 29.7241 35.1027 29.0329C36.5459 26.2279 37.0789 23.0404 36.6271 19.9164C36.1753 16.7924 34.7614 13.8883 32.5831 11.6104C29.8783 8.82829 26.1927 7.22312 22.3198 7.14047L25.1668 9.99663C26.1866 10.9943 26.9992 12.1849 27.5575 13.4995C28.1158 14.8142 28.4088 16.2269 28.4195 17.6559C28.4301 19.0849 28.1583 20.5018 27.6196 21.8247C27.081 23.1477 26.2863 24.3503 25.2814 25.3632C24.2765 26.376 23.0814 27.1789 21.7653 27.7254C20.4492 28.272 19.0381 28.5513 17.6137 28.5473C16.1892 28.5433 14.7797 28.256 13.4667 27.702C12.1536 27.1481 10.9631 26.3384 9.9639 25.3199L7.11693 22.4638C7.17639 25.0089 7.88325 27.4966 9.17041 29.6906C10.4576 31.8846 12.2823 33.7122 14.4714 34.9999C16.6606 36.2876 19.1414 36.9925 21.6784 37.048C24.2155 37.1034 26.7246 36.5074 28.9675 35.3165C29.4717 35.0115 30.0446 34.8396 30.6329 34.8167Z" fill="white"/>
<path d="M47.6299 43.2423C46.9222 43.2464 46.2293 43.0388 45.6398 42.6458C45.0503 42.2529 44.591 41.6926 44.3205 41.0365C44.05 40.3804 43.9807 39.6583 44.1214 38.9624C44.2621 38.2666 44.6064 37.6286 45.1103 37.1301L62.064 20.1502C62.7361 19.5008 63.6356 19.1421 64.5687 19.1515C65.5018 19.161 66.3939 19.5377 67.0528 20.2006C67.7117 20.8635 68.0847 21.7596 68.0915 22.6957C68.0982 23.6318 67.7382 24.5332 67.089 25.2056L50.1495 42.1998C49.8188 42.5317 49.426 42.7947 48.9935 42.9737C48.5611 43.1526 48.0976 43.2439 47.6299 43.2423Z" fill="white"/>
<path d="M71.0605 32.7602C70.595 32.7607 70.134 32.6688 69.704 32.4899C69.2741 32.311 68.8836 32.0486 68.5551 31.7177L55.516 18.6936C55.1291 18.3104 54.8353 17.8432 54.6573 17.3279C54.4792 16.8126 54.4216 16.2632 54.4891 15.722C54.5565 15.1809 54.7471 14.6625 55.0461 14.2071C55.3451 13.7517 55.7446 13.3713 56.2135 13.0955L72.1281 3.69874C72.8006 3.30652 73.5831 3.14716 74.3548 3.24523C75.1266 3.3433 75.8447 3.69335 76.3985 4.24141L82.8896 10.7535C83.4361 11.3086 83.7862 12.0281 83.8865 12.8018C83.9867 13.5755 83.8316 14.3608 83.4448 15.0377L74.1352 31.0036C73.8575 31.4717 73.4774 31.8705 73.0237 32.1698C72.57 32.4692 72.0545 32.6612 71.516 32.7316L71.0605 32.7602ZM63.8434 16.8942L70.3345 23.4062L76.0284 13.8524L73.3808 11.2533L63.8434 16.8942Z" fill="white"/>
<path d="M14.7473 83C12.6876 83.0012 10.6747 82.3831 8.96848 81.2256C7.26223 80.068 5.94085 78.4241 5.17482 76.506C4.40879 74.5878 4.23325 72.4833 4.67086 70.4641C5.10846 68.4449 6.13913 66.6035 7.62989 65.1776L33.0249 40.9002C33.7082 40.2469 34.6223 39.8926 35.566 39.9154C36.5097 39.9382 37.4057 40.3361 38.0569 41.0216C38.7082 41.7072 39.0613 42.6242 39.0386 43.5709C39.0159 44.5176 38.6193 45.4165 37.9359 46.0699L12.5267 70.3472C12.2208 70.6413 11.9764 70.9935 11.8078 71.3834C11.6392 71.7733 11.5496 72.1929 11.5445 72.6179C11.5352 73.0441 11.6124 73.4677 11.7715 73.8629C11.9305 74.2582 12.1681 74.6169 12.4698 74.9171C13.09 75.5066 13.9073 75.8427 14.7616 75.8596C15.1863 75.8534 15.6055 75.7617 15.9943 75.59C16.383 75.4183 16.7335 75.1701 17.0249 74.86L41.0107 49.5972C41.6719 48.9654 42.5499 48.6128 43.463 48.6122C44.3762 48.6117 45.2546 48.9633 45.9165 49.5944C46.5785 50.2254 46.9733 51.0876 47.0193 52.0026C47.0653 52.9175 46.759 53.8152 46.1637 54.5098L22.2064 79.7868C21.2629 80.7889 20.127 81.5888 18.8671 82.1386C17.6072 82.6884 16.2493 82.9766 14.8754 82.9858L14.7473 83Z" fill="white"/>
</g>
<defs>
<clipPath id="clip0">
<rect width="84" height="83" fill="white"/>
</clipPath>
</defs>
</svg>
